<?xml version="1.0" encoding="UTF-8" standalone="no"?>
<!-- Uploaded to: SVG Repo, www.svgrepo.com, Generator: SVG Repo Mixer Tools -->

<svg
   fill="#fff"
   width="40px"
   height="40px"
   version="1.1"
   id="Capa_1"
   viewBox="0 0 413.95033 470.699"
   xml:space="preserve"
   sodipodi:docname="css.svg"
   inkscape:version="1.2.2 (732a01da63, 2022-12-09)"
   xmlns:inkscape="http://www.inkscape.org/namespaces/inkscape"
   xmlns:sodipodi="http://sodipodi.sourceforge.net/DTD/sodipodi-0.dtd"
   xmlns="http://www.w3.org/2000/svg"
   xmlns:svg="http://www.w3.org/2000/svg"><defs
   id="defs7" /><sodipodi:namedview
   id="namedview5"
   pagecolor="#ffffff"
   bordercolor="#000000"
   borderopacity="0.25"
   inkscape:showpageshadow="2"
   inkscape:pageopacity="0.0"
   inkscape:pagecheckerboard="0"
   inkscape:deskcolor="#d1d1d1"
   showgrid="false"
   inkscape:zoom="0.5"
   inkscape:cx="518"
   inkscape:cy="413"
   inkscape:window-width="1920"
   inkscape:window-height="1000"
   inkscape:window-x="1911"
   inkscape:window-y="-9"
   inkscape:window-maximized="1"
   inkscape:current-layer="Capa_1" />
<path
   d="M 398.60791,0 H 15.327908 C 6.1469084,0 -0.74109156,7.769 0.06890844,16.949 L 35.076908,409.254 c 0.811,9.173 8.745,18.774 17.644,21.253 l 138.006002,38.335 c 8.887,2.463 23.413,2.479 32.313,0.032 l 138.177,-38.281 c 8.901,-2.472 16.835,-11.986 17.645,-21.175 l 35.023,-392.469 C 414.69491,7.769 407.83591,0 398.60791,0 Z m -66.471,141.611 c -0.006,0.06 -0.053,0.107 -0.112,0.117 -0.06,0.01 -0.118,-0.021 -0.144,-0.077 l -108.124,44.309 c -1.54,0.631 -2.418,2.264 -2.098,3.897 0.322,1.633 1.754,2.811 3.419,2.811 h 84.103 c 4.474,0 8.736,1.9 11.728,5.227 2.991,3.327 4.429,7.768 3.954,12.216 l -13.141,123.273 c -0.645,6.048 -4.709,11.186 -10.447,13.205 l -89.269,31.41 c -3.362,1.184 -7.027,1.193 -10.397,0.025 l -88.852,-30.778 c -5.773,-2 -9.871,-7.153 -10.52,-13.228 L 96.279908,278.19 c -0.313,-2.931 0.634,-5.857 2.604,-8.048 1.971002,-2.192 4.779002,-3.444 7.727002,-3.444 h 24.725 c 5.313,0 9.769,4.007 10.331,9.289 l 3.655,34.316 61.521,21.385 61.803,-21.58 7.559,-71.17 h -174.743 c -5.297002,0 -9.746002,-3.985 -10.327002,-9.25 l -3.327,-30.164 c -0.508,-4.601 2.088,-8.982 6.366,-10.745 L 206.01091,142.67 c 1.269,-0.523 1.99,-1.868 1.724,-3.214 -0.267,-1.345 -1.446,-2.314 -2.817,-2.314 H 87.168908 c -3.545,0 -6.518,-2.677 -6.888,-6.201 l -3.406,-32.421 c -0.205,-1.951 0.428,-3.898 1.741,-5.357 1.313,-1.458 3.184,-2.291 5.146,-2.291 H 330.14091 c 1.973,0 3.852,0.842 5.166,2.313 1.314,1.472 1.938,3.434 1.715,5.394 z"
   id="path2" />
</svg>
