<?xml version="1.0" encoding="UTF-8" standalone="no"?>
<!-- Uploaded to: SVG Repo, www.svgrepo.com, Generator: SVG Repo Mixer Tools -->

<svg
   width="20px"
   height="20px"
   viewBox="0 0 17.002346 17.002344"
   version="1.1"
   fill="none"
   id="svg4"
   sodipodi:docname="external-link-icon.svg"
   inkscape:version="1.2.2 (732a01da63, 2022-12-09)"
   xmlns:inkscape="http://www.inkscape.org/namespaces/inkscape"
   xmlns:sodipodi="http://sodipodi.sourceforge.net/DTD/sodipodi-0.dtd"
   xmlns="http://www.w3.org/2000/svg"
   xmlns:svg="http://www.w3.org/2000/svg">
  <defs
     id="defs8" />
  <sodipodi:namedview
     id="namedview6"
     pagecolor="#ffffff"
     bordercolor="#000000"
     borderopacity="0.25"
     inkscape:showpageshadow="2"
     inkscape:pageopacity="0.0"
     inkscape:pagecheckerboard="0"
     inkscape:deskcolor="#d1d1d1"
     showgrid="false"
     inkscape:zoom="1.02125"
     inkscape:cx="260.46512"
     inkscape:cy="301.10159"
     inkscape:window-width="1920"
     inkscape:window-height="1000"
     inkscape:window-x="1911"
     inkscape:window-y="-9"
     inkscape:window-maximized="1"
     inkscape:current-layer="svg4" />
  <g
     id="Interface / External_Link"
     transform="translate(-3.9976545,-3)">
    <path
       id="Vector"
       d="m 10.0002,5 h -1.8 C 7.08009,5 6.51962,5 6.0918,5.21799 5.71547,5.40973 5.40973,5.71547 5.21799,6.0918 5,6.51962 5,7.08009 5,8.2002 v 7.6 c 0,1.1201 0,1.6799 0.21799,2.1077 0.19174,0.3763 0.49748,0.6826 0.87381,0.8743 C 6.5192,19 7.07899,19 8.19691,19 h 7.60619 c 1.1179,0 1.6769,0 2.1043,-0.2178 0.3763,-0.1917 0.6831,-0.4983 0.8748,-0.8746 C 19,17.4802 19,16.921 19,15.8031 V 14 M 20,9 V 4 m 0,0 h -5 m 5,0 -7,7"
       stroke="#ffb700"
       stroke-width="2"
       stroke-linecap="round"
       stroke-linejoin="round" />
  </g>
</svg>
