<?xml version="1.0" encoding="UTF-8" standalone="no"?>
<svg
   width="375"
   height="375"
   viewBox="0 0 375 375"
   fill="none"
   version="1.1"
   id="svg562"
   sodipodi:docname="Hamburger-Menu-icon.svg"
   inkscape:version="1.2.2 (732a01da63, 2022-12-09)"
   xmlns:inkscape="http://www.inkscape.org/namespaces/inkscape"
   xmlns:sodipodi="http://sodipodi.sourceforge.net/DTD/sodipodi-0.dtd"
   xmlns="http://www.w3.org/2000/svg"
   xmlns:svg="http://www.w3.org/2000/svg">
  <defs
     id="defs566" />
  <sodipodi:namedview
     id="namedview564"
     pagecolor="#ffffff"
     bordercolor="#000000"
     borderopacity="0.25"
     inkscape:showpageshadow="2"
     inkscape:pageopacity="0.0"
     inkscape:pagecheckerboard="0"
     inkscape:deskcolor="#d1d1d1"
     showgrid="false"
     inkscape:zoom="1.54055"
     inkscape:cx="44.789199"
     inkscape:cy="185.97255"
     inkscape:window-width="1920"
     inkscape:window-height="1000"
     inkscape:window-x="1911"
     inkscape:window-y="-9"
     inkscape:window-maximized="1"
     inkscape:current-layer="svg562" />
  <circle
     cx="187.5"
     cy="187.5"
     r="182.5"
     fill="white"
     stroke="black"
     stroke-width="10"
     id="circle553" />
  <mask
     id="path-2-inside-1_0_1"
     fill="white">
    <path
       fill-rule="evenodd"
       clip-rule="evenodd"
       d="M105 105H270V129H105V105ZM105 176H270V199H105V176ZM270 246H105V270H270V246ZM248 309.5C248 319.165 240.165 327 230.5 327C220.835 327 213 319.165 213 309.5C213 299.835 220.835 292 230.5 292C240.165 292 248 299.835 248 309.5ZM141.5 327C151.165 327 159 319.165 159 309.5C159 299.835 151.165 292 141.5 292C131.835 292 124 299.835 124 309.5C124 319.165 131.835 327 141.5 327Z"
       id="path555" />
  </mask>
  <path
     fill-rule="evenodd"
     clip-rule="evenodd"
     d="m 105,76.5 h 165 v 24 H 105 Z m 0,71 h 165 v 23 H 105 Z m 165,70 H 105 v 24 H 270 Z M 248,281 c 0,9.665 -7.835,17.5 -17.5,17.5 -9.665,0 -17.5,-7.835 -17.5,-17.5 0,-9.665 7.835,-17.5 17.5,-17.5 9.665,0 17.5,7.835 17.5,17.5 z m -106.5,17.5 c 9.665,0 17.5,-7.835 17.5,-17.5 0,-9.665 -7.835,-17.5 -17.5,-17.5 -9.665,0 -17.5,7.835 -17.5,17.5 0,9.665 7.835,17.5 17.5,17.5 z"
     fill="#000000"
     id="path558" />
</svg>
