<?xml version="1.0" encoding="UTF-8" standalone="no"?>
<!-- Uploaded to: SVG Repo, www.svgrepo.com, Generator: SVG Repo Mixer Tools -->

<svg
   fill="#fff"
   width="40px"
   height="40px"
   version="1.1"
   id="Layer_1"
   viewBox="0 0 263.66973 299.21324"
   xml:space="preserve"
   sodipodi:docname="html.svg"
   inkscape:version="1.2.2 (732a01da63, 2022-12-09)"
   xmlns:inkscape="http://www.inkscape.org/namespaces/inkscape"
   xmlns:sodipodi="http://sodipodi.sourceforge.net/DTD/sodipodi-0.dtd"
   xmlns="http://www.w3.org/2000/svg"
   xmlns:svg="http://www.w3.org/2000/svg"><defs
   id="defs7" /><sodipodi:namedview
   id="namedview5"
   pagecolor="#ffffff"
   bordercolor="#000000"
   borderopacity="0.25"
   inkscape:showpageshadow="2"
   inkscape:pageopacity="0.0"
   inkscape:pagecheckerboard="0"
   inkscape:deskcolor="#d1d1d1"
   showgrid="false"
   inkscape:zoom="0.3610664"
   inkscape:cx="587.14962"
   inkscape:cy="577.45611"
   inkscape:window-width="1920"
   inkscape:window-height="1000"
   inkscape:window-x="1911"
   inkscape:window-y="-9"
   inkscape:window-maximized="1"
   inkscape:current-layer="Layer_1" />
<g
   id="XMLID_106_"
   transform="translate(-17.77228)">
	<path
   id="XMLID_107_"
   d="m 22.347,0 c -2.75,0 -4.799,2.241 -4.555,4.98 l 23.184,260.047 c 0.244,2.739 2.611,5.582 5.262,6.318 l 98.381,27.316 c 2.65,0.736 6.986,0.736 9.637,0.002 l 98.68,-27.361 c 2.65,-0.735 5.02,-3.578 5.264,-6.316 L 281.422,4.98 C 281.668,2.241 279.617,0 276.867,0 Z m 209.702,59.641 c -0.219,2.443 -0.598,6.684 -0.842,9.423 l -0.611,6.823 c -0.246,2.738 -0.596,6.654 -0.781,8.701 -0.184,2.048 -0.359,3.723 -0.391,3.723 -0.031,0 -2.307,0 -5.057,0 h -69.76 c -2.75,0 -5.023,0 -5.053,0 -0.03,0 -2.305,0 -5.055,0 h -36.74 c -2.75,0 -4.799,2.241 -4.555,4.98 l 2.143,23.955 c 0.244,2.738 2.695,4.98 5.445,4.98 H 144.5 c 2.75,0 5.025,0 5.055,0 0.03,0 2.303,0 5.053,0 h 57.939 c 2.75,0 7.006,0 9.457,0 2.449,0 4.273,1.999 4.051,4.442 -0.223,2.443 -0.604,6.685 -0.848,9.423 l -6.891,77.228 c -0.246,2.739 -0.557,6.238 -0.691,7.776 -0.137,1.537 -2.416,3.396 -5.066,4.131 l -58.133,16.119 c -2.65,0.734 -4.852,1.342 -4.893,1.351 -0.041,0.009 -2.242,-0.586 -4.893,-1.321 L 86.445,225.227 c -2.65,-0.735 -5.018,-3.578 -5.262,-6.317 l -3.746,-42.045 c -0.244,-2.739 1.807,-4.98 4.557,-4.98 h 5.311 c 2.75,0 7.25,0 10,0 h 7.92 c 2.75,0 5.199,2.241 5.445,4.98 l 1.469,16.459 c 0.244,2.739 2.615,5.566 5.271,6.283 l 27.221,7.351 c 2.654,0.717 4.836,1.304 4.848,1.304 0.012,0 2.193,-0.588 4.848,-1.305 l 27.27,-7.369 c 2.654,-0.717 5.027,-3.545 5.273,-6.283 l 2.957,-32.976 c 0.246,-2.739 -1.803,-4.98 -4.553,-4.98 h -30.666 c -2.75,0 -5.023,0 -5.053,0 -0.03,0 -2.305,0 -5.055,0 H 80.511 c -2.75,0 -5.199,-2.242 -5.443,-4.98 L 67.812,69.063 C 67.568,66.324 67.189,62.084 66.97,59.64 66.753,57.197 68.824,55.198 71.574,55.198 H 144.5 c 2.75,0 5.025,0 5.055,0 0.03,0 2.303,0 5.053,0 h 72.838 c 2.749,0 4.821,1.999 4.603,4.443 z" />
</g>
</svg>
