<?xml version="1.0" encoding="UTF-8" standalone="no"?>
<svg
   fill="#fff"
   width="50"
   height="50"
   viewBox="0 0 200.00321 200.00642"
   id="Flat"
   version="1.1"
   sodipodi:docname="instagram-logo-fill-svgrepo-com.svg"
   inkscape:version="1.2.2 (732a01da63, 2022-12-09)"
   xmlns:inkscape="http://www.inkscape.org/namespaces/inkscape"
   xmlns:sodipodi="http://sodipodi.sourceforge.net/DTD/sodipodi-0.dtd"
   xmlns="http://www.w3.org/2000/svg"
   xmlns:svg="http://www.w3.org/2000/svg">
   <path
      d="m 132.00348,100.00447 a 32,32 0 1 1 -32,-32.000001 32.03667,32.03667 0 0 1 32,32.000001 z m 68,-44.000001 v 88.000001 a 56.06353,56.06353 0 0 1 -56,56 h -88 a 56.06353,56.06353 0 0 1 -56.00000068,-56 V 56.004469 A 56.06353,56.06353 0 0 1 56.00348,0.00446898 h 88 a 56.06353,56.06353 0 0 1 56,56.00000002 z m -52,44.000001 a 48,48 0 1 0 -48,48 48.05436,48.05436 0 0 0 48,-48 z m 16,-52.000001 a 12,12 0 1 0 -12,12 12,12 0 0 0 12,-12 z"
      id="path2" />
</svg>