<?xml version="1.0" encoding="UTF-8" standalone="no"?>
<!-- Uploaded to: SVG Repo, www.svgrepo.com, Generator: SVG Repo Mixer Tools -->

<svg
   fill="#fff"
   width="40px"
   height="40px"
   viewBox="0 0 23.970267 23.087102"
   role="img"
   version="1.1"
   id="svg6"
   sodipodi:docname="jquery.svg"
   inkscape:version="1.2.2 (732a01da63, 2022-12-09)"
   xmlns:inkscape="http://www.inkscape.org/namespaces/inkscape"
   xmlns:sodipodi="http://sodipodi.sourceforge.net/DTD/sodipodi-0.dtd"
   xmlns="http://www.w3.org/2000/svg"
   xmlns:svg="http://www.w3.org/2000/svg"
   xmlns:rdf="http://www.w3.org/1999/02/22-rdf-syntax-ns#"
   xmlns:cc="http://creativecommons.org/ns#"
   xmlns:dc="http://purl.org/dc/elements/1.1/">
  <defs
     id="defs10" />
  <sodipodi:namedview
     id="namedview8"
     pagecolor="#ffffff"
     bordercolor="#000000"
     borderopacity="0.25"
     inkscape:showpageshadow="2"
     inkscape:pageopacity="0.0"
     inkscape:pagecheckerboard="0"
     inkscape:deskcolor="#d1d1d1"
     showgrid="false"
     inkscape:zoom="0.510625"
     inkscape:cx="330.96695"
     inkscape:cy="386.78091"
     inkscape:window-width="1920"
     inkscape:window-height="1000"
     inkscape:window-x="1911"
     inkscape:window-y="-9"
     inkscape:window-maximized="1"
     inkscape:current-layer="svg6" />
  <title
     id="title2">jQuery icon</title>
  <path
     d="m 1.5232669,5.421 c -2.12299999,3.05 -1.85999999,7.017 -0.237,10.256 0.037,0.079 0.078,0.154 0.118,0.229 0.023,0.052 0.049,0.1 0.077,0.149 0.013,0.028 0.031,0.057 0.047,0.083 0.026,0.052 0.054,0.102 0.081,0.152 l 0.157,0.265 c 0.029,0.049 0.057,0.097 0.09,0.146 0.055,0.094 0.12,0.187 0.177,0.281 0.026,0.039 0.05,0.078 0.079,0.117 a 6.36,6.36 0 0 0 0.31,0.444 c 0.078,0.107 0.156,0.211 0.24,0.315 0.027,0.038 0.057,0.076 0.085,0.114 l 0.221,0.269 c 0.027,0.031 0.054,0.067 0.083,0.099 0.098,0.118 0.202,0.233 0.306,0.349 0,0.002 0.003,0.004 0.005,0.007 a 3.13,3.13 0 0 0 0.424,0.44 c 0.08,0.082 0.16,0.164 0.245,0.244 l 0.101,0.097 c 0.111,0.104 0.222,0.208 0.339,0.308 0.002,0 0.003,0.002 0.005,0.003 l 0.057,0.05 c 0.102,0.089 0.205,0.178 0.31,0.26 l 0.125,0.105 c 0.085,0.068 0.173,0.133 0.26,0.2 l 0.136,0.104 c 0.093,0.07 0.192,0.139 0.287,0.207 0.035,0.025 0.07,0.05 0.106,0.073 l 0.029,0.023 0.281,0.185 0.12,0.08 c 0.147,0.094 0.293,0.183 0.438,0.271 0.042,0.021 0.084,0.044 0.123,0.068 0.108,0.062 0.22,0.125 0.329,0.183 0.06,0.034 0.122,0.063 0.184,0.094 0.075,0.042 0.153,0.083 0.233,0.125 a 0.324,0.324 0 0 1 0.056,0.023 c 0.033,0.015 0.064,0.031 0.096,0.047 0.12,0.06 0.245,0.117 0.375,0.174 0.024,0.01 0.05,0.02 0.076,0.034 0.144,0.063 0.288,0.123 0.437,0.182 0.034,0.01 0.07,0.027 0.105,0.04 0.135,0.051 0.274,0.103 0.411,0.152 l 0.05,0.018 c 0.153,0.052 0.304,0.102 0.459,0.15 0.036,0.01 0.073,0.023 0.111,0.033 0.159,0.048 0.313,0.105 0.4730001,0.136 10.26,1.87 13.242,-6.169 13.242,-6.169 -2.505,3.262 -6.95,4.122 -11.16,3.165 -0.156,-0.036 -0.312,-0.086 -0.469,-0.132 a 13.522,13.522 0 0 1 -0.567,-0.181 l -0.062,-0.024 c -0.136,-0.046 -0.267,-0.097 -0.4,-0.148 a 1.613,1.613 0 0 0 -0.11,-0.041 c -0.147,-0.059 -0.29,-0.12 -0.432,-0.183 -0.031,-0.01 -0.057,-0.024 -0.088,-0.036 a 23.41,23.41 0 0 1 -0.3610001,-0.17 c -0.037,-0.016 -0.07,-0.033 -0.106,-0.052 -0.094,-0.044 -0.188,-0.094 -0.28,-0.142 a 3.942,3.942 0 0 1 -0.187,-0.096 c -0.113,-0.06 -0.226,-0.125 -0.339,-0.187 -0.034,-0.024 -0.073,-0.044 -0.112,-0.066 a 15.902,15.902 0 0 1 -0.438,-0.269 2.104,2.104 0 0 1 -0.118,-0.079 6.002,6.002 0 0 1 -0.312,-0.206 c -0.035,-0.023 -0.067,-0.048 -0.103,-0.073 a 9.541,9.541 0 0 1 -0.294,-0.212 c -0.042,-0.034 -0.087,-0.066 -0.132,-0.1 -0.088,-0.069 -0.177,-0.135 -0.265,-0.208 l -0.118,-0.094 a 10.58,10.58 0 0 1 -0.334,-0.281 0.258,0.258 0 0 0 -0.037,-0.03 l -0.347,-0.316 -0.1,-0.094 c -0.082,-0.083 -0.166,-0.163 -0.25,-0.245 l -0.097,-0.1 a 9.07,9.07 0 0 1 -0.309,-0.323 l -0.015,-0.016 c -0.106,-0.116 -0.209,-0.234 -0.313,-0.354 -0.027,-0.031 -0.052,-0.064 -0.08,-0.097 l -0.226,-0.277 a 21.248,21.248 0 0 1 -0.34,-0.448 c -2.335,-3.188 -3.18,-7.588 -1.311,-11.197 m 4.937,-0.472 c -1.539,2.209 -1.452,5.163 -0.254,7.499 a 9.1,9.1 0 0 0 0.677,1.132 c 0.23,0.33 0.484,0.72 0.792,0.986 0.107,0.122 0.223,0.24 0.344,0.359 l 0.09,0.09 c 0.114,0.11 0.231,0.218 0.3500001,0.325 l 0.015,0.013 a 9.855,9.855 0 0 0 0.414,0.342 c 0.034,0.023 0.063,0.05 0.096,0.073 0.14,0.108 0.281,0.212 0.427,0.315 l 0.015,0.009 c 0.062,0.045 0.128,0.086 0.198,0.13 0.028,0.018 0.06,0.042 0.09,0.06 0.106,0.068 0.21,0.132 0.317,0.197 0.017,0.007 0.032,0.016 0.048,0.023 0.09,0.055 0.188,0.108 0.282,0.157 0.033,0.02 0.065,0.035 0.099,0.054 0.067,0.033 0.133,0.068 0.197,0.102 l 0.032,0.014 c 0.135,0.066 0.273,0.128 0.408,0.19 0.034,0.013 0.063,0.024 0.092,0.038 0.111,0.048 0.224,0.094 0.335,0.137 0.05,0.017 0.097,0.037 0.144,0.052 0.102,0.038 0.209,0.073 0.31,0.108 l 0.14,0.045 c 0.146,0.045 0.294,0.104 0.448,0.129 7.92,1.313 9.754,-4.787 9.754,-4.787 -1.651,2.376 -4.846,3.508 -8.251,2.624 a 8.03,8.03 0 0 1 -0.448,-0.13 c -0.048,-0.013 -0.09,-0.028 -0.136,-0.042 -0.104,-0.036 -0.211,-0.071 -0.312,-0.109 l -0.144,-0.054 c -0.112,-0.045 -0.226,-0.087 -0.335,-0.135 -0.034,-0.015 -0.065,-0.025 -0.091,-0.04 -0.14,-0.063 -0.281,-0.125 -0.417,-0.192 l -0.206,-0.107 -0.119,-0.06 c -0.092,-0.048 -0.177,-0.098 -0.265,-0.15 a 0.62,0.62 0 0 1 -0.062,-0.034 c -0.106,-0.066 -0.216,-0.13 -0.317,-0.198 -0.034,-0.019 -0.065,-0.042 -0.097,-0.062 l -0.208,-0.136 c -0.144,-0.1 -0.285,-0.208 -0.427,-0.312 -0.032,-0.029 -0.063,-0.053 -0.094,-0.079 -1.497,-1.177 -2.6780001,-2.786 -3.2380001,-4.608 -0.59,-1.894 -0.46,-4.018 0.559,-5.742 M 13.649267,0.931 c -0.908,1.332 -0.995,2.986 -0.37,4.455 0.664,1.56 2.022,2.785 3.604,3.365 0.065,0.025 0.128,0.046 0.195,0.07 l 0.088,0.027 c 0.092,0.029 0.185,0.063 0.28,0.084 4.376,0.844 5.56,-2.247 5.879,-2.701 -1.042,1.496 -2.789,1.855 -4.932,1.334 a 4.844,4.844 0 0 1 -0.516,-0.16 6.344,6.344 0 0 1 -0.617,-0.254 6.521,6.521 0 0 1 -1.08,-0.66 c -1.92,-1.454 -3.109,-4.23 -1.857,-6.491"
     id="path4" />
  <metadata
     id="metadata293">
    <rdf:RDF>
      <cc:Work
         rdf:about="">
        <dc:title>jQuery icon</dc:title>
      </cc:Work>
    </rdf:RDF>
  </metadata>
</svg>
