<?xml version="1.0" encoding="UTF-8" standalone="no"?>
<!-- Uploaded to: SVG Repo, www.svgrepo.com, Generator: SVG Repo Mixer Tools -->

<svg
   fill="#fff"
   width="40px"
   height="40px"
   viewBox="0 0 18 18"
   version="1.1"
   id="svg4"
   sodipodi:docname="js.svg"
   inkscape:version="1.2.2 (732a01da63, 2022-12-09)"
   xmlns:inkscape="http://www.inkscape.org/namespaces/inkscape"
   xmlns:sodipodi="http://sodipodi.sourceforge.net/DTD/sodipodi-0.dtd"
   xmlns="http://www.w3.org/2000/svg"
   xmlns:svg="http://www.w3.org/2000/svg">
  <defs
     id="defs8" />
  <sodipodi:namedview
     id="namedview6"
     pagecolor="#ffffff"
     bordercolor="#000000"
     borderopacity="0.25"
     inkscape:showpageshadow="2"
     inkscape:pageopacity="0.0"
     inkscape:pagecheckerboard="0"
     inkscape:deskcolor="#d1d1d1"
     showgrid="false"
     inkscape:zoom="0.510625"
     inkscape:cx="66.585067"
     inkscape:cy="506.24235"
     inkscape:window-width="1920"
     inkscape:window-height="1000"
     inkscape:window-x="1911"
     inkscape:window-y="-9"
     inkscape:window-maximized="1"
     inkscape:current-layer="svg4" />
  <path
     d="M 0,0 H 18 V 18 H 0 Z M 16.525,13.707 C 16.394,12.886 15.859,12.196 14.273,11.552 13.721,11.293 13.108,11.114 12.924,10.698 12.856,10.45 12.846,10.316 12.89,10.169 13.003,9.685 13.577,9.54 14.027,9.674 14.32,9.764 14.59,9.989 14.759,10.35 15.534,9.843 15.534,9.843 16.075,9.506 15.872,9.192 15.771,9.055 15.636,8.92 15.163,8.392 14.533,8.122 13.51,8.145 l -0.528,0.067 c -0.507,0.124 -0.991,0.395 -1.283,0.754 -0.855,0.968 -0.608,2.655 0.427,3.354 1.023,0.765 2.521,0.933 2.712,1.653 0.18,0.878 -0.652,1.159 -1.475,1.058 -0.607,-0.136 -0.945,-0.439 -1.316,-1.002 l -1.372,0.788 c 0.157,0.359 0.337,0.517 0.607,0.832 1.305,1.316 4.568,1.249 5.153,-0.754 0.021,-0.067 0.18,-0.528 0.056,-1.237 z M 9.788,8.273 H 8.102 c 0,1.453 -0.007,2.898 -0.007,4.354 0,0.924 0.047,1.772 -0.104,2.033 C 7.744,15.177 7.105,15.111 6.816,15.019 6.519,14.873 6.368,14.67 6.193,14.378 6.146,14.3 6.111,14.232 6.098,14.232 L 4.73,15.076 c 0.229,0.473 0.563,0.879 0.994,1.137 0.641,0.383 1.502,0.507 2.404,0.305 0.588,-0.17 1.095,-0.519 1.358,-1.059 0.384,-0.697 0.302,-1.553 0.299,-2.509 0.008,-1.541 0,-3.083 0,-4.635 z"
     id="path2" />
</svg>
