<?xml version="1.0" encoding="UTF-8" standalone="no"?>
<!-- License: MIT. Made by Diemen Design: https://github.com/DiemenDesign/LibreICONS -->

<svg
   fill="#fff"
   width="40px"
   height="40px"
   viewBox="0 0 11.969295 12"
   role="img"
   focusable="false"
   aria-hidden="true"
   version="1.1"
   id="svg4"
   sodipodi:docname="json.svg"
   inkscape:version="1.2.2 (732a01da63, 2022-12-09)"
   xmlns:inkscape="http://www.inkscape.org/namespaces/inkscape"
   xmlns:sodipodi="http://sodipodi.sourceforge.net/DTD/sodipodi-0.dtd"
   xmlns="http://www.w3.org/2000/svg"
   xmlns:svg="http://www.w3.org/2000/svg">
  <defs
     id="defs8" />
  <sodipodi:namedview
     id="namedview6"
     pagecolor="#ffffff"
     bordercolor="#000000"
     borderopacity="0.25"
     inkscape:showpageshadow="2"
     inkscape:pageopacity="0.0"
     inkscape:pagecheckerboard="0"
     inkscape:deskcolor="#d1d1d1"
     showgrid="false"
     inkscape:zoom="0.510625"
     inkscape:cx="442.59486"
     inkscape:cy="271.23623"
     inkscape:window-width="1920"
     inkscape:window-height="1000"
     inkscape:window-x="1911"
     inkscape:window-y="-9"
     inkscape:window-maximized="1"
     inkscape:current-layer="svg4" />
  <path
     d="m 6.0062034,11.984005 c 0.2394862,-0.002 0.4764725,-0.0145 0.7129588,-0.047 0.5399689,-0.069 1.0714382,-0.216488 1.5729092,-0.431475 0.7044595,-0.300983 1.3489225,-0.735458 1.8963906,-1.271427 0.501471,-0.4944722 0.920947,-1.0754382 1.219929,-1.7134013 0.254486,-0.548468 0.434475,-1.136935 0.509971,-1.7379 0.0745,-0.579966 0.0675,-1.172932 -0.0225,-1.749399 -0.0745,-0.479972 -0.209488,-0.947945 -0.396477,-1.393919 C 11.379392,3.3589997 11.2369,3.0890147 11.07241,2.8310297 10.488443,1.9125827 9.6419929,1.1741257 8.6675488,0.68065375 c -0.34648,-0.177489 -0.711459,-0.322481 -1.0859373,-0.434474 h -0.0025 c 0.059497,0.0315 0.1199931,0.066 0.17249,0.100494 0.059997,0.037 0.1194931,0.073 0.1754899,0.112493 0.2844836,0.192489 0.5469684,0.413476 0.779455,0.66496195 0.5314695,0.572467 0.8984485,1.273926 1.1089355,2.020383 0.141992,0.490972 0.2169881,0.998943 0.2474861,1.508413 0.022,0.371479 0.022,0.745457 -0.0235,1.114436 -0.07449,0.634963 -0.2769831,1.254927 -0.6139641,1.797896 -0.247486,0.401477 -0.5699671,0.759456 -0.9514451,1.04194 C 7.8520947,9.0711698 7.0356419,9.3481538 6.2561869,9.1641648 6.1291942,9.1336648 6.0012016,9.0911648 5.8822085,9.0351718 5.7467184,8.9731787 5.6122261,8.8966827 5.492733,8.8106877 5.2602465,8.6551967 5.0502586,8.4682077 4.8707689,8.2577197 4.6532815,7.9977347 4.4737919,7.7022517 4.3462992,7.3842697 4.1893083,6.9812937 4.106813,6.5483187 4.0993135,6.1143437 4.0843145,5.4778807 4.211807,4.8379167 4.5262888,4.2794497 c 0.2099879,-0.371979 0.4944715,-0.69796 0.831452,-0.958945 0.1124935,-0.089 0.2319866,-0.16649 0.3519797,-0.239486 l 0.008,-0.0035 c -0.2329866,-0.0525 -0.4799723,-0.0755 -0.7204585,-0.06 -0.2089879,0.0145 -0.4114762,0.0525 -0.6139645,0.119493 -0.1794896,0.06 -0.3519797,0.135492 -0.5094706,0.224987 -0.1274926,0.07449 -0.2539853,0.157491 -0.3664788,0.247485 -0.105494,0.09 -0.2099879,0.17949 -0.3074823,0.277484 -0.5614676,0.576467 -0.883949,1.340923 -1.0109416,2.127878 -0.074996,0.486471 -0.074996,0.980443 -0.045497,1.475414 0.052497,0.69696 0.1954887,1.39292 0.4724727,2.0303831 0.1719901,0.396977 0.3964771,0.7634562 0.6739611,1.0864372 0.4269754,0.493472 0.9669442,0.87645 1.5659096,1.115436 0.3374805,0.135492 0.6969598,0.232487 1.056439,0.269984 C 5.9492066,12 5.9867046,12 6.0167028,12 L 6.0062038,11.984 Z M 4.5392881,11.785016 c -0.081995,-0.035 -0.156991,-0.07449 -0.224987,-0.113993 -0.074496,-0.0415 -0.1499914,-0.084 -0.2244871,-0.129493 C 3.7973309,11.360541 3.535846,11.148053 3.2953599,10.904067 2.7483915,10.3351 2.3819126,9.6206408 2.1719247,8.8636847 2.0299329,8.3467147 1.9544373,7.8127457 1.924439,7.2777767 1.90244,6.9262967 1.90994,6.5813167 1.947438,6.2368367 c 0.067496,-0.628464 0.2474857,-1.250428 0.5619676,-1.789897 0.224487,-0.396977 0.5314693,-0.748957 0.8914485,-1.026441 0.2469857,-0.186989 0.5244697,-0.34498 0.8164529,-0.449974 0.4119762,-0.149491 0.8539507,-0.194489 1.281426,-0.134992 0.1649905,0.0225 0.328981,0.0605 0.4794723,0.112494 0.014499,0 0.014499,0 0.022499,0.015 0.0075,0.0075 0.022499,0.0075 0.029998,0.015 0.022499,0.008 0.051997,0.0225 0.082495,0.037 0.1194931,0.06 0.2394862,0.135492 0.3519797,0.209988 0.4494741,0.314481 0.8164529,0.748956 1.0484395,1.250927 0.2099879,0.456974 0.3074822,0.966945 0.3154818,1.468916 0.007,0.539468 -0.089995,1.078437 -0.3224814,1.572909 -0.277484,0.591966 -0.7489568,1.093937 -1.3189239,1.415918 0.044997,0.015 0.089995,0.0225 0.1354922,0.0375 0.1124935,0.022 0.224487,0.037 0.3439801,0.037 0.7339577,0.0225 1.4459166,-0.3294812 1.9698863,-0.8234532 0.097494,-0.08999 0.1874892,-0.187489 0.2699844,-0.292483 0.1124929,-0.135 0.2174869,-0.269492 0.3069819,-0.411484 0.119493,-0.187489 0.217488,-0.374978 0.306983,-0.576967 0.112993,-0.269484 0.201988,-0.546968 0.254485,-0.831952 0.09799,-0.501971 0.105494,-1.010941 0.0745,-1.512912 -0.0675,-1.010942 -0.336481,-2.022384 -0.9209472,-2.861835 C 8.8390399,1.5701057 8.749545,1.4501127 8.6515507,1.3376197 8.4870602,1.1501297 8.3070706,0.97813975 8.1200814,0.82064875 7.9100935,0.64815875 7.6776069,0.49116775 7.4386207,0.36317575 7.1921349,0.25168175 6.8996518,0.13968875 6.5926695,0.06419275 l -0.1499913,-0.03 c -0.104494,-0.015 -0.2099879,-0.022 -0.3169817,-0.03 -0.1624906,-0.0075 -0.3344807,-0.005000003 -0.5074707,0.008 -0.3519797,0.0225 -0.7059592,0.07999 -1.055939,0.16849 -1.6779032,0.432975 -3.1458184,1.60240795 -3.92727343,3.15381795 -0.2504855,0.494472 -0.4274753,1.022941 -0.5309693,1.56591 -0.11949311,0.621464 -0.13499221,1.261427 -0.051997,1.887391 0.059996,0.50997 0.1869892,1.011442 0.3889775,1.488414 0.1134935,0.284984 0.2554853,0.561968 0.4124762,0.8239521 0.54696853,0.891449 1.34142263,1.6179072 2.25486993,2.1198782 0.3439801,0.195489 0.7039593,0.34498 1.0784377,0.472473 0.1129935,0.037 0.224987,0.07449 0.3444801,0.104494 l 0.008,-0.012 z"
     id="path2" />
</svg>
