<?xml version="1.0" encoding="UTF-8" standalone="no"?>
<svg
   fill="#fff"
   width="40px"
   height="40px"
   viewBox="0 0 512 352.03199"
   version="1.1"
   id="svg6"
   sodipodi:docname="logo-laravel-svgrepo-com.svg"
   inkscape:version="1.2.2 (732a01da63, 2022-12-09)"
   xmlns:inkscape="http://www.inkscape.org/namespaces/inkscape"
   xmlns:sodipodi="http://sodipodi.sourceforge.net/DTD/sodipodi-0.dtd"
   xmlns="http://www.w3.org/2000/svg"
   xmlns:svg="http://www.w3.org/2000/svg"
   xmlns:rdf="http://www.w3.org/1999/02/22-rdf-syntax-ns#"
   xmlns:cc="http://creativecommons.org/ns#"
   xmlns:dc="http://purl.org/dc/elements/1.1/">
   <title
      id="title2">ionicons-v5_logos</title>
   <path
      d="m 505.60591,154.63471 c -3.28,-3.53 -26.82,-32.29 -39.51,-47.79 -6.75,-8.239998 -12.08,-14.749998 -14.32,-17.449998 l -0.18,-0.22 -0.2,-0.21 c -5.22,-5.83 -12.64,-12.51 -23.78,-12.51 a 39.78,39.78 0 0 0 -5.41,0.44 c -0.37,0.05 -0.75,0.11 -1.15,0.15 -2.45,0.27 -10.06,1.5 -28.14,4.48 -14,2.29 -35.11,5.77 -38.31,6.07 l -0.71,0.06 -0.69,0.13 c -10,1.78 -16.62,6.22 -19.56,13.189998 -1.55,3.68 -3.22,11.15 2.94,19.86 1.53,2.22 6.83,9.56 15.94,22.17 6.06,8.4 12.87,17.82 18.75,26 l -111.34,26.01 -109.24,-178.949998 -0.2,-0.34 -0.23,-0.33 -0.44,-0.65 c -4.47,-6.56 -10.03,-14.72999997 -26.09,-14.72999997 v 0 c -1.13,0 -2.31,0 -3.63,0.11 -4.6,0.25 -21.420003,1.56999997 -40.890003,3.10999997 -21.49,1.69 -50.9,4 -54.72,4.1 h -0.73 l -0.79,0.08 c -9.14,0.89 -15.7700004,4.6 -19.7000004,11 -6.55,10.69 -1.4200001,22.69 0.26,26.63 3.37,7.97 34.0600004,72.669998 61.1300004,129.779998 18,37.94 36.580003,77.17 38.100003,80.65 a 34.85,34.85 0 0 0 32.94,21.59 46.62,46.62 0 0 0 9.86,-1.1 h 0.21 l 0.2,-0.05 c 13.86,-3.38 57.83,-14.54 89.2,-22.59 1.9,3.32 3.9,6.83 6,10.44 21.93,38.5 37.9,66.35 43.16,73.46 2.7,3.79 10.7,14.79 25.76,14.79 5.46,0 10.46,-1.4 15.74,-2.89 l 1.53,-0.43 h 0.06 0.06 c 10.53,-3 150.69,-52.16 157.87,-55.35 l 0.22,-0.1 c 5.44,-2.41 13.66,-6.05 16.18,-15.4 1.65,-6.12 0.18,-12.33 -4.38,-18.46 l -0.07,-0.09 -0.07,-0.09 c -0.85,-1.1 -4,-5.21 -8.27,-10.9 -9.13,-12.07 -23.88,-31.57 -36.84,-48.54 17.37,-4.5 38.8,-10.11 43.38,-11.55 11.47,-3.43 14.94,-10.69 16,-14.73 0.79,-3.15 1.82,-11.2 -5.9,-18.85 z m -320,58.19 c -17.81,4.17 -30.22,7.08 -37.89,8.9 -6.67,-13.34 -19.74,-39.65 -32.5,-65.33 C 85.475907,96.474712 70.115907,65.624712 62.035907,49.494712 l 8.15,-0.7 c 13.34,-1.15 31.610003,-2.72 41.780003,-3.57 16.76,28.26 74.32,125.299998 96.3,162.299998 z m 242.01,-120.809998 z m -117.52,244.399998 z m 53.67,-56.95 c -24.21,8 -37.33,12.37 -44.42,14.74 -6.3,-10.34 -20.16,-33.52 -32.47,-54.19 l 115.7,-29.48 c 5,6.81 14.57,19.72 33.46,44.93 -18.07,6.04 -48.2,16.02 -72.27,24 z m 55.87,-121.63 -23.76,-31.53 c 13.67,-2.39 21.54,-3.77 26.15,-4.6 l 12,14.88 11.94,14.82 c -8.2,1.99 -17.74,4.32 -26.33,6.43 z"
      id="path4" />
   <metadata
      id="metadata293">
      <rdf:RDF>
         <cc:Work
            rdf:about="">
            <dc:title>ionicons-v5_logos</dc:title>
         </cc:Work>
      </rdf:RDF>
   </metadata>
</svg>