<svg
   fill="#ffb700"
   viewBox="0 0 23.01 22"
   width="23.01"
   height="22"
   version="1.1"
   id="svg4"
   sodipodi:docname="icons8-linkedin.svg"
   inkscape:version="1.2.2 (732a01da63, 2022-12-09)"
   xmlns:inkscape="http://www.inkscape.org/namespaces/inkscape"
   xmlns:sodipodi="http://sodipodi.sourceforge.net/DTD/sodipodi-0.dtd"
   xmlns="http://www.w3.org/2000/svg"
   xmlns:svg="http://www.w3.org/2000/svg">
   <path
      d="M 5.0090797,22.007909 H 0.00907969 V 7.0079091 H 5.0090797 Z m -2.499,-16.9999999 c -1.383,0 -2.50100001,-1.121 -2.50100001,-2.501 0,-1.38 1.11999991,-2.49900004 2.50100001,-2.49900004 1.378,0 2.499,1.12100004 2.499,2.49900004 0,1.38 -1.121,2.501 -2.499,2.501 z M 23.00908,22.007909 h -4.807 v -7.3 c 0,-1.741 -0.033,-3.98 -2.499,-3.98 -2.503,0 -2.888,1.896 -2.888,3.854 v 7.426 H 8.0090797 v -15.011 H 12.62308 v 2.0510001 h 0.065 c 0.642,-1.18 2.211,-2.424 4.551,-2.424 4.87,0 5.77,3.109 5.77,7.1509999 0,0 0,8.233 0,8.233 z"
      id="path2" />
</svg>