<svg
   width="55"
   height="55"
   viewBox="0 0 105 105"
   version="1.1"
   id="svg5"
   inkscape:version="1.2.2 (732a01da63, 2022-12-09)"
   sodipodi:docname="logotipo_6.svg"
   xmlns:inkscape="http://www.inkscape.org/namespaces/inkscape"
   xmlns:sodipodi="http://sodipodi.sourceforge.net/DTD/sodipodi-0.dtd"
   xmlns:xlink="http://www.w3.org/1999/xlink"
   xmlns="http://www.w3.org/2000/svg"
   xmlns:svg="http://www.w3.org/2000/svg"
>
   <defs id="defs2">
      <linearGradient inkscape:collect="always" id="linearGradient1053">
         <stop
            style="stop-color: #ffffff; stop-opacity: 1"
            offset="0"
            id="stop1049"
         />
         <stop
            style="stop-color: #ffffff; stop-opacity: 0"
            offset="1"
            id="stop1051"
         />
      </linearGradient>
      <linearGradient inkscape:collect="always" id="linearGradient1045">
         <stop
            style="stop-color: #ffffff; stop-opacity: 1"
            offset="0"
            id="stop1041"
         />
         <stop
            style="stop-color: #e8c3c3; stop-opacity: 0"
            offset="1"
            id="stop1043"
         />
      </linearGradient>
      <linearGradient inkscape:collect="always" id="linearGradient1037">
         <stop
            style="stop-color: #ffffff; stop-opacity: 1"
            offset="0"
            id="stop1033"
         />
         <stop
            style="stop-color: #ffffff; stop-opacity: 0"
            offset="1"
            id="stop1035"
         />
      </linearGradient>
      <linearGradient
         inkscape:collect="always"
         xlink:href="#linearGradient1037"
         id="linearGradient1039"
         x1="57.439903"
         y1="150.489"
         x2="157.44"
         y2="150.489"
         gradientUnits="userSpaceOnUse"
         gradientTransform="translate(-54.442802,-97.473195)"
      />
      <linearGradient
         inkscape:collect="always"
         xlink:href="#linearGradient1045"
         id="linearGradient1047"
         x1="97.533112"
         y1="150.4895"
         x2="157.53307"
         y2="150.4895"
         gradientUnits="userSpaceOnUse"
         gradientTransform="translate(-54.442802,-97.473195)"
      />
      <linearGradient
         inkscape:collect="always"
         xlink:href="#linearGradient1053"
         id="linearGradient1055"
         x1="82.529427"
         y1="150.48836"
         x2="132.52943"
         y2="150.48836"
         gradientUnits="userSpaceOnUse"
         gradientTransform="translate(-54.442802,-97.473195)"
      />
   </defs>
   <g inkscape:label="Capa 1" inkscape:groupmode="layer" id="layer1">
      <path
         id="path273"
         style="
                  fill: url(#linearGradient1039);
                  fill-opacity: 1;
                  stroke-width: 0.307213;
               "
         d="m 52.997148,3.0157621 a 50,50 0 0 0 -0.77049,0.0289 50,50 0 0 1 2.65823,0.0109 50,50 0 0 0 -1.88774,-0.0398 z m 2.17196,0.0506 a 50,50 0 0 1 3.39618,0.2640711 50,50 0 0 0 -3.39618,-0.2640711 z m -4.9382,0.0532 a 50,50 0 0 0 -1.70532,0.11885 50,50 0 0 1 1.70532,-0.11885 z m 8.63359,0.245981 a 50,50 0 0 1 3.36775,0.51366 50,50 0 0 0 -3.36775,-0.51366 z m -12.33155,0.0977 a 50,50 0 0 0 -1.688787,0.24392 50,50 0 0 1 1.688787,-0.24392 z m 15.97163,0.46923 a 50,50 0 0 1 3.37189,0.77204 50,50 0 0 0 -3.37189,-0.77204 z m -19.63549,0.14831 a 50,50 0 0 0 -1.658814,0.36587 50,50 0 0 1 1.658814,-0.36587 z m 23.1805,0.67179 a 50,50 0 0 1 3.39049,1.04438 50,50 0 0 0 -3.39049,-1.04438 z m -26.796817,0.21859 a 50,50 0 0 0 -1.608171,0.48111 50,50 0 0 1 1.608171,-0.48111 z m 30.259647,0.85215 a 50,50 0 0 1 3.3073,1.29242 50,50 0 0 0 -3.3073,-1.29242 z m -33.786564,0.30024 a 50,50 0 0 0 -1.575097,0.60099 50,50 0 0 1 1.575097,-0.60099 z m 37.213234,1.04231 a 50,50 0 0 1 3.176554,1.5198 50,50 0 0 0 -3.176554,-1.5198 z m -40.647649,0.37 a 50,50 0 0 0 -1.522905,0.71417 50,50 0 0 1 1.522905,-0.71417 z m 43.997323,1.23869 a 50,50 0 0 1 3.0179,1.7280599 50,50 0 0 0 -3.0179,-1.7280599 z m -47.323735,0.4284 a 50,50 0 0 0 -1.452108,0.8159699 50,50 0 0 1 1.452108,-0.8159699 z m 0.787032,1.2991399 a 10,10 0 0 0 -5.886463,1.92495 l -0.0052,-0.007 a 50,50 0 0 0 -0.301274,0.23306 10,10 0 0 0 -0.05891,0.046 50,50 0 0 0 -20.5031418,40.316919 50,50 0 0 0 2.6127604,15.85639 l 0.02429,-0.008 a 10,10 0 0 0 9.4877934,6.86005 10,10 0 0 0 10.000423,-10.00042 10,10 0 0 0 -0.644922,-3.5326 30,30 0 0 1 -1.480529,-9.17515 30,30 0 0 1 12.526367,-24.34581 l -0.0036,-0.005 a 10,10 0 0 0 4.232817,-8.163319 10,10 0 0 0 -10.000423,-9.99991 z m 49.755103,0.12454 a 50,50 0 0 1 2.86908,1.9358 50,50 0 0 0 -2.86908,-1.9358 z m -53.734188,0.48524 a 50,50 0 0 0 -1.383379,0.91726 50,50 0 0 1 1.383379,-0.91726 z m 57.077658,1.79731 a 50,50 0 0 1 0.24339,0.18087 50,50 0 0 0 -0.24339,-0.18087 z m 1.15807,0.88625 a 50,50 0 0 1 0.11472,0.092 50,50 0 0 0 -0.11472,-0.092 z m 0.88883,0.7214 a 50,50 0 0 1 0.29249,0.24495 50,50 0 0 0 -0.29249,-0.24495 z m 0.90176,0.76585 a 50,50 0 0 1 0.29714,0.25838 50,50 0 0 0 -0.29714,-0.25838 z m 1.10019,0.9834 a 50,50 0 0 1 0.25838,0.24236 50,50 0 0 0 -0.25838,-0.24236 z m 0.850588,0.8046 a 50,50 0 0 1 0.28681,0.28009 50,50 0 0 0 -0.28681,-0.28009 z m 0.8847,0.87799 a 50,50 0 0 1 0.22686,0.22996 50,50 0 0 0 -0.22686,-0.22996 z m 0.97979,1.02216 a 50,50 0 0 1 0.26665,0.29093 50,50 0 0 0 -0.26665,-0.29093 z m 0.78703,0.86868 a 50,50 0 0 1 0.27957,0.31781 50,50 0 0 0 -0.27957,-0.31781 z m 0.84698,0.9803 a 50,50 0 0 1 0.17466,0.20567 50,50 0 0 0 -0.17466,-0.20567 z m 0.86092,1.05058 a 50,50 0 0 1 0.26717,0.34003 50,50 0 0 0 -0.26717,-0.34003 z m 0.73123,0.94258 a 50,50 0 0 1 0.25011,0.33124 50,50 0 0 0 -0.25011,-0.33124 z m 0.729147,0.986499 a 50,50 0 0 1 0.3514,0.49403 50,50 0 0 0 -0.3514,-0.49403 z m 0.80512,1.15032 a 50,50 0 0 1 0.2775,0.41599 50,50 0 0 0 -0.2775,-0.41599 z m 0.63975,0.96893 a 50,50 0 0 1 0.25632,0.40049 50,50 0 0 0 -0.25632,-0.40049 z m 0.82373,1.31827 a 50,50 0 0 1 0.14624,0.24804 50,50 0 0 0 -0.14624,-0.24804 z m 0.57102,0.97668 a 50,50 0 0 1 0.23823,0.42272 50,50 0 0 0 -0.23823,-0.42272 z m 0.56844,1.02475 a 50,50 0 0 1 0.21343,0.39635 50,50 0 0 0 -0.21343,-0.39635 z m 0.6935,1.32601 a 50,50 0 0 1 0.22479,0.45786 50,50 0 0 0 -0.22479,-0.45786 z m 0.49506,1.01596 a 50,50 0 0 1 0.23203,0.4961 50,50 0 0 0 -0.23203,-0.4961 z m 0.49299,1.07384 a 50,50 0 0 1 0.20257,0.45578 50,50 0 0 0 -0.20257,-0.45578 z m 0.5979,1.39216 a 50,50 0 0 1 0.1943,0.48628 50,50 0 0 0 -0.1943,-0.48628 z m 0.41909,1.05988 a 50,50 0 0 1 0.19999,0.52969 50,50 0 0 0 -0.19999,-0.52969 z m 0.392753,1.06144 a 50,50 0 0 1 0.18241,0.51159 50,50 0 0 0 -0.18241,-0.51159 z m 0.49816,1.45727 a 50,50 0 0 1 0.17415,0.55449 50,50 0 0 0 -0.17415,-0.55449 z m 0.34158,1.1033 a 50,50 0 0 1 0.16019,0.54673 50,50 0 0 0 -0.16019,-0.54673 z m 0.30437,1.0666 a 50,50 0 0 1 0.27337,1.03921 50,50 0 0 0 -0.27337,-1.03921 z m 0.39119,1.51205 a 50,50 0 0 1 0.13953,0.60151 50,50 0 0 0 -0.13953,-0.60151 z m 0.25167,1.10588 a 50,50 0 0 1 0.12557,0.58807 50,50 0 0 0 -0.12557,-0.58807 z m 0.23099,1.12809 a 50,50 0 0 1 0.18345,1.00511 50,50 0 0 0 -0.18345,-1.00511 z m 0.27234,1.53324 a 50,50 0 0 1 0.0909,0.5917 50,50 0 0 0 -0.0909,-0.5917 z m 0.16381,1.10226 a 50,50 0 0 1 0.0837,0.62425 50,50 0 0 0 -0.0837,-0.62425 z m 0.13384,1.05265 a 50,50 0 0 1 0.12092,1.15703 50,50 0 0 0 -0.12092,-1.15703 z m 0.1633,1.62729 a 50,50 0 0 1 0.0486,0.62838 50,50 0 0 0 -0.0486,-0.62838 z m 0.0796,1.10329 a 50,50 0 0 1 0.0873,2.27945 50,50 0 0 0 -0.0873,-2.27945 z m 0.092,2.70061 a 50,50 0 0 1 0.001,0.0419 50,50 0 0 0 -5.2e-4,-0.0419 z m 0.002,0.1416 a 50,50 0 0 1 5.1e-4,0.41599 50,50 0 0 0 0.003,-0.20205 50,50 0 0 0 -0.004,-0.21394 z m 5.1e-4,0.42426 a 50,50 0 0 1 -5.1e-4,0.0248 50,50 0 0 0 5.1e-4,-0.0248 z m -0.006,0.51056 a 50,50 0 0 1 -0.0388,1.38648 50,50 0 0 0 0.0388,-1.38648 z m -0.0486,1.64073 a 50,50 0 0 1 -0.0393,0.6935 50,50 0 0 0 0.0393,-0.6935 z m -0.0661,1.10536 a 50,50 0 0 1 -0.0501,0.66869 50,50 0 0 0 0.0501,-0.66869 z m -0.0909,1.11828 a 50,50 0 0 1 -0.12816,1.22783 50,50 0 0 0 0.12816,-1.22783 z m -0.17002,1.58388 a 50,50 0 0 1 -0.0894,0.67386 50,50 0 0 0 0.0894,-0.67386 z m -0.15244,1.11724 a 50,50 0 0 1 -0.0997,0.65319 50,50 0 0 0 0.0997,-0.65319 z m -0.1633,1.02836 a 50,50 0 0 1 -0.23461,1.28933 50,50 0 0 0 0.23461,-1.28933 z m -0.30024,1.62626 a 50,50 0 0 1 -0.14934,0.7059 50,50 0 0 0 0.14934,-0.7059 z m -0.22583,1.04903 a 50,50 0 0 1 -0.17001,0.73432 50,50 0 0 0 0.17001,-0.73432 z m -0.17105,0.73794 a 50,50 0 0 1 -0.41857,1.61179 50,50 0 0 0 0.41857,-1.61179 z m -0.50332,1.91668 a 50,50 0 0 1 -0.20568,0.70435 50,50 0 0 0 0.20568,-0.70435 z m -95.0365824,3.49694 a 50,50 0 0 0 0.609782,1.62058 50,50 0 0 1 -0.609782,-1.62058 z m 1.401465,3.43545 a 50,50 0 0 0 0.724504,1.56528 50,50 0 0 1 -0.724504,-1.56528 z m 1.655196,3.326416 a 50,50 0 0 0 0.839742,1.5105 50,50 0 0 1 -0.839742,-1.5105 z m 86.9120084,1.55236 a 50,50 0 0 1 -1.95285,3.0427 50,50 0 0 0 1.95285,-3.0427 z m -85.033053,1.61282 a 50,50 0 0 0 0.971,1.47846 50,50 0 0 1 -0.971,-1.47846 z m 83.029553,1.50326 a 50,50 0 0 1 -2.165757,2.88252 50,50 0 0 0 2.165757,-2.88252 z m -80.906685,1.53531 a 50,50 0 0 0 1.076937,1.40353 50,50 0 0 1 -1.076937,-1.40353 z m 78.691838,1.40767 a 50,50 0 0 1 -2.38848,2.733679 50,50 0 0 0 2.38848,-2.733679 z m -76.341594,1.47536 a 50,50 0 0 0 1.170471,1.312579 50,50 0 0 1 -1.170471,-1.312579 z m 2.551782,2.693889 a 50,50 0 0 0 1.266073,1.22473 50,50 0 0 1 -1.266073,-1.22473 z m 2.737818,2.49081 a 50,50 0 0 0 1.362707,1.13636 50,50 0 0 1 -1.362707,-1.13636 z m 2.896464,2.268592 a 50,50 0 0 0 1.475879,1.05678 50,50 0 0 1 -1.475879,-1.05678 z m 3.079915,2.06448 a 50,50 0 0 0 1.545642,0.94257 50,50 0 0 1 -1.545642,-0.94257 z m 3.238045,1.83709 a 50,50 0 0 0 1.60197,0.82166 50,50 0 0 1 -1.60197,-0.82166 z m 3.332614,1.57717 a 50,50 0 0 0 1.683618,0.7121 50,50 0 0 1 -1.683618,-0.7121 z m 3.466971,1.335831 a 50,50 0 0 0 1.721859,0.58291 50,50 0 0 1 -1.721859,-0.58291 z m 3.537769,1.06971 a 50,50 0 0 0 1.78077,0.45992 50,50 0 0 1 -1.78077,-0.45992 z m 3.571358,0.79891 a 50,50 0 0 0 1.862936,0.33693 50,50 0 0 1 -1.862936,-0.33693 z m 3.630786,0.5364 a 50,50 0 0 0 1.92495,0.20361 50,50 0 0 1 -1.92495,-0.20361 z m 3.63389,0.26769 a 50,50 0 0 0 1.85156,0.0692 50,50 0 0 0 0.23978,-0.003 50,50 0 0 1 -2.09134,-0.0661 z"
      />
      <path
         id="path218"
         style="
                  fill: url(#linearGradient1047);
                  fill-opacity: 1;
                  stroke-width: 0.264583;
               "
         d="m 53.094388,3.0160321 a 10,10 0 0 0 -9.999895,9.9999009 10,10 0 0 0 9.995245,9.99939 v 0.002 a 30,30 0 0 1 5.2e-4,0 30,30 0 0 1 30.000244,30.000229 30,30 0 0 1 -29.964584,29.999716 10,10 0 0 0 -0.0357,-0.003 10,10 0 0 0 -9.999905,9.999909 10,10 0 0 0 9.999385,9.999903 v 0.003 a 50,50 0 0 0 5.2e-4,0 50,50 0 0 0 50.000052,-50.000038 50,50 0 0 0 -49.969562,-49.9995299 10,10 0 0 0 -0.0264,-0.002 z"
      />
      <circle
         style="
                  fill: url(#linearGradient1055);
                  fill-opacity: 1;
                  stroke-width: 0.292228;
               "
         id="path632"
         cx="53.086624"
         cy="53.01516"
         r="25"
      />
      <circle
         style="fill: #ffffff; stroke-width: 0.31961"
         id="path395-8"
         cx="29.746311"
         cy="85.523079"
         r="10"
      />
   </g>
</svg>