<?xml version="1.0" encoding="UTF-8" standalone="no"?>
<!-- Created with Inkscape (http://www.inkscape.org/) -->

<svg
   width="793.70081"
   height="1122.5197"
   viewBox="0 0 210 296.99999"
   version="1.1"
   id="svg5"
   inkscape:version="1.2.2 (732a01da63, 2022-12-09)"
   sodipodi:docname="logotipo_5.svg"
   xmlns:inkscape="http://www.inkscape.org/namespaces/inkscape"
   xmlns:sodipodi="http://sodipodi.sourceforge.net/DTD/sodipodi-0.dtd"
   xmlns="http://www.w3.org/2000/svg"
   xmlns:svg="http://www.w3.org/2000/svg">
  <sodipodi:namedview
     id="namedview7"
     pagecolor="#505050"
     bordercolor="#eeeeee"
     borderopacity="1"
     inkscape:showpageshadow="0"
     inkscape:pageopacity="0"
     inkscape:pagecheckerboard="0"
     inkscape:deskcolor="#505050"
     inkscape:document-units="mm"
     showgrid="true"
     inkscape:zoom="0.70710678"
     inkscape:cx="188.79751"
     inkscape:cy="637.10321"
     inkscape:window-width="1920"
     inkscape:window-height="1000"
     inkscape:window-x="1911"
     inkscape:window-y="-9"
     inkscape:window-maximized="1"
     inkscape:current-layer="layer1"
     showguides="true"
     inkscape:lockguides="false">
    <inkscape:grid
       type="xygrid"
       id="grid601" />
  </sodipodi:namedview>
  <defs
     id="defs2" />
  <g
     inkscape:label="Capa 1"
     inkscape:groupmode="layer"
     id="layer1">
    <path
       id="path273"
       style="fill:#ffeeaa;stroke-width:0.307213"
       d="M 107.43995 100.48896 A 50 50 0 0 0 106.66946 100.5179 A 50 50 0 0 1 109.32769 100.52875 A 50 50 0 0 0 107.43995 100.48896 z M 109.61191 100.5396 A 50 50 0 0 1 113.00809 100.80367 A 50 50 0 0 0 109.61191 100.5396 z M 104.67371 100.59283 A 50 50 0 0 0 102.96839 100.71168 A 50 50 0 0 1 104.67371 100.59283 z M 113.3073 100.83881 A 50 50 0 0 1 116.67505 101.35247 A 50 50 0 0 0 113.3073 100.83881 z M 100.97575 100.93647 A 50 50 0 0 0 99.286963 101.18039 A 50 50 0 0 1 100.97575 100.93647 z M 116.94738 101.4057 A 50 50 0 0 1 120.31927 102.17774 A 50 50 0 0 0 116.94738 101.4057 z M 97.31189 101.55401 A 50 50 0 0 0 95.653076 101.91988 A 50 50 0 0 1 97.31189 101.55401 z M 120.49239 102.2258 A 50 50 0 0 1 123.88288 103.27018 A 50 50 0 0 0 120.49239 102.2258 z M 93.695573 102.44439 A 50 50 0 0 0 92.087402 102.9255 A 50 50 0 0 1 93.695573 102.44439 z M 123.95522 103.29654 A 50 50 0 0 1 127.26252 104.58896 A 50 50 0 0 0 123.95522 103.29654 z M 90.168656 103.59678 A 50 50 0 0 0 88.593559 104.19777 A 50 50 0 0 1 90.168656 103.59678 z M 127.38189 104.63909 A 50 50 0 0 1 130.55844 106.15889 A 50 50 0 0 0 127.38189 104.63909 z M 86.734241 105.00909 A 50 50 0 0 0 85.211336 105.72326 A 50 50 0 0 1 86.734241 105.00909 z M 130.73156 106.24778 A 50 50 0 0 1 133.74946 107.97584 A 50 50 0 0 0 130.73156 106.24778 z M 83.407829 106.67618 A 50 50 0 0 0 81.955721 107.49215 A 50 50 0 0 1 83.407829 106.67618 z M 84.194861 107.97532 A 10 10 0 0 0 78.308398 109.90027 L 78.303231 109.89303 A 50 50 0 0 0 78.001957 110.12609 A 10 10 0 0 0 77.943046 110.17209 A 50 50 0 0 0 57.439905 150.48901 A 50 50 0 0 0 60.052665 166.3454 L 60.076953 166.33713 A 10 10 0 0 0 69.564746 173.19718 A 10 10 0 0 0 79.565169 163.19676 A 10 10 0 0 0 78.920247 159.66416 A 30 30 0 0 1 77.439718 150.48901 A 30 30 0 0 1 89.966085 126.1432 L 89.962467 126.13855 A 10 10 0 0 0 94.195284 117.97523 A 10 10 0 0 0 84.194861 107.97532 z M 133.94996 108.09986 A 50 50 0 0 1 136.81904 110.03566 A 50 50 0 0 0 133.94996 108.09986 z M 80.215776 108.5851 A 50 50 0 0 0 78.832397 109.50236 A 50 50 0 0 1 80.215776 108.5851 z M 137.29343 110.38241 A 50 50 0 0 1 137.53682 110.56328 A 50 50 0 0 0 137.29343 110.38241 z M 138.4515 111.26866 A 50 50 0 0 1 138.56622 111.36064 A 50 50 0 0 0 138.4515 111.26866 z M 139.34033 111.99006 A 50 50 0 0 1 139.63282 112.23501 A 50 50 0 0 0 139.34033 111.99006 z M 140.24209 112.75591 A 50 50 0 0 1 140.53923 113.01429 A 50 50 0 0 0 140.24209 112.75591 z M 141.34228 113.73931 A 50 50 0 0 1 141.60066 113.98167 A 50 50 0 0 0 141.34228 113.73931 z M 142.19287 114.54391 A 50 50 0 0 1 142.47968 114.824 A 50 50 0 0 0 142.19287 114.54391 z M 143.07757 115.4219 A 50 50 0 0 1 143.30443 115.65186 A 50 50 0 0 0 143.07757 115.4219 z M 144.05736 116.44406 A 50 50 0 0 1 144.32401 116.73499 A 50 50 0 0 0 144.05736 116.44406 z M 144.84439 117.31274 A 50 50 0 0 1 145.12396 117.63055 A 50 50 0 0 0 144.84439 117.31274 z M 145.69137 118.29304 A 50 50 0 0 1 145.86603 118.49871 A 50 50 0 0 0 145.69137 118.29304 z M 146.55229 119.34362 A 50 50 0 0 1 146.81946 119.68365 A 50 50 0 0 0 146.55229 119.34362 z M 147.28352 120.2862 A 50 50 0 0 1 147.53363 120.61744 A 50 50 0 0 0 147.28352 120.2862 z M 148.01267 121.2727 A 50 50 0 0 1 148.36407 121.76673 A 50 50 0 0 0 148.01267 121.2727 z M 148.81779 122.42302 A 50 50 0 0 1 149.09529 122.83901 A 50 50 0 0 0 148.81779 122.42302 z M 149.45754 123.39195 A 50 50 0 0 1 149.71386 123.79244 A 50 50 0 0 0 149.45754 123.39195 z M 150.28127 124.71022 A 50 50 0 0 1 150.42751 124.95826 A 50 50 0 0 0 150.28127 124.71022 z M 150.85229 125.6869 A 50 50 0 0 1 151.09052 126.10962 A 50 50 0 0 0 150.85229 125.6869 z M 151.42073 126.71165 A 50 50 0 0 1 151.63416 127.108 A 50 50 0 0 0 151.42073 126.71165 z M 152.11423 128.03766 A 50 50 0 0 1 152.33902 128.49552 A 50 50 0 0 0 152.11423 128.03766 z M 152.60929 129.05362 A 50 50 0 0 1 152.84132 129.54972 A 50 50 0 0 0 152.60929 129.05362 z M 153.10228 130.12746 A 50 50 0 0 1 153.30485 130.58324 A 50 50 0 0 0 153.10228 130.12746 z M 153.70018 131.51962 A 50 50 0 0 1 153.89448 132.0059 A 50 50 0 0 0 153.70018 131.51962 z M 154.11927 132.5795 A 50 50 0 0 1 154.31926 133.10919 A 50 50 0 0 0 154.11927 132.5795 z M 154.51202 133.64094 A 50 50 0 0 1 154.69443 134.15253 A 50 50 0 0 0 154.51202 133.64094 z M 155.01018 135.09821 A 50 50 0 0 1 155.18433 135.6527 A 50 50 0 0 0 155.01018 135.09821 z M 155.35176 136.20151 A 50 50 0 0 1 155.51195 136.74824 A 50 50 0 0 0 155.35176 136.20151 z M 155.65613 137.26811 A 50 50 0 0 1 155.9295 138.30732 A 50 50 0 0 0 155.65613 137.26811 z M 156.04732 138.78016 A 50 50 0 0 1 156.18685 139.38167 A 50 50 0 0 0 156.04732 138.78016 z M 156.29899 139.88604 A 50 50 0 0 1 156.42456 140.47411 A 50 50 0 0 0 156.29899 139.88604 z M 156.52998 141.01413 A 50 50 0 0 1 156.71343 142.01924 A 50 50 0 0 0 156.52998 141.01413 z M 156.80232 142.54737 A 50 50 0 0 1 156.89327 143.13907 A 50 50 0 0 0 156.80232 142.54737 z M 156.96613 143.64963 A 50 50 0 0 1 157.04985 144.27388 A 50 50 0 0 0 156.96613 143.64963 z M 157.09997 144.70228 A 50 50 0 0 1 157.22089 145.85931 A 50 50 0 0 0 157.09997 144.70228 z M 157.26327 146.32957 A 50 50 0 0 1 157.31184 146.95795 A 50 50 0 0 0 157.26327 146.32957 z M 157.34285 147.43286 A 50 50 0 0 1 157.43018 149.71231 A 50 50 0 0 0 157.34285 147.43286 z M 157.43483 150.13347 A 50 50 0 0 1 157.43587 150.17533 A 50 50 0 0 0 157.43535 150.13347 L 157.43483 150.13347 z M 157.43639 150.27507 A 50 50 0 0 1 157.4369 150.69106 A 50 50 0 0 0 157.44 150.48901 A 50 50 0 0 0 157.43639 150.27507 z M 157.4369 150.69933 A 50 50 0 0 1 157.43639 150.72413 A 50 50 0 0 0 157.4369 150.69933 z M 157.4307 151.20989 A 50 50 0 0 1 157.39194 152.59637 A 50 50 0 0 0 157.4307 151.20989 z M 157.38212 152.85062 A 50 50 0 0 1 157.34285 153.54412 A 50 50 0 0 0 157.38212 152.85062 z M 157.31598 153.95598 A 50 50 0 0 1 157.26585 154.62467 A 50 50 0 0 0 157.31598 153.95598 z M 157.22503 155.07426 A 50 50 0 0 1 157.09687 156.30209 A 50 50 0 0 0 157.22503 155.07426 z M 157.05501 156.65814 A 50 50 0 0 1 156.96561 157.332 A 50 50 0 0 0 157.05501 156.65814 z M 156.90257 157.77538 A 50 50 0 0 1 156.80283 158.42857 A 50 50 0 0 0 156.90257 157.77538 z M 156.73927 158.80374 A 50 50 0 0 1 156.50466 160.09307 A 50 50 0 0 0 156.73927 158.80374 z M 156.43903 160.43 A 50 50 0 0 1 156.28969 161.1359 A 50 50 0 0 0 156.43903 160.43 z M 156.2132 161.47903 A 50 50 0 0 1 156.04319 162.21335 A 50 50 0 0 0 156.2132 161.47903 z M 156.04215 162.21697 A 50 50 0 0 1 155.62358 163.82876 A 50 50 0 0 0 156.04215 162.21697 z M 155.53883 164.13365 A 50 50 0 0 1 155.33315 164.838 A 50 50 0 0 0 155.53883 164.13365 z M 60.50225 167.63059 A 50 50 0 0 0 61.112032 169.25117 A 50 50 0 0 1 60.50225 167.63059 z M 61.903715 171.06604 A 50 50 0 0 0 62.628219 172.63132 A 50 50 0 0 1 61.903715 171.06604 z M 63.558911 174.39246 A 50 50 0 0 0 64.398653 175.90296 A 50 50 0 0 1 63.558911 174.39246 z M 150.47092 175.94482 A 50 50 0 0 1 148.51807 178.98752 A 50 50 0 0 0 150.47092 175.94482 z M 65.437866 177.55764 A 50 50 0 0 0 66.408866 179.0361 A 50 50 0 0 1 65.437866 177.55764 z M 148.46742 179.0609 A 50 50 0 0 1 146.30166 181.94342 A 50 50 0 0 0 148.46742 179.0609 z M 67.560734 180.59621 A 50 50 0 0 0 68.637671 181.99974 A 50 50 0 0 1 67.560734 180.59621 z M 146.25257 182.00388 A 50 50 0 0 1 143.86409 184.73756 A 50 50 0 0 0 146.25257 182.00388 z M 69.910978 183.47924 A 50 50 0 0 0 71.081449 184.79182 A 50 50 0 0 1 69.910978 183.47924 z M 72.46276 186.17313 A 50 50 0 0 0 73.728833 187.39786 A 50 50 0 0 1 72.46276 186.17313 z M 75.200578 188.66394 A 50 50 0 0 0 76.563285 189.8003 A 50 50 0 0 1 75.200578 188.66394 z M 78.097042 190.93253 A 50 50 0 0 0 79.572921 191.98931 A 50 50 0 0 1 78.097042 190.93253 z M 81.176957 192.99701 A 50 50 0 0 0 82.722599 193.93958 A 50 50 0 0 1 81.176957 192.99701 z M 84.415002 194.8341 A 50 50 0 0 0 86.016972 195.65576 A 50 50 0 0 1 84.415002 194.8341 z M 87.747616 196.41127 A 50 50 0 0 0 89.431234 197.12337 A 50 50 0 0 1 87.747616 196.41127 z M 91.214587 197.7471 A 50 50 0 0 0 92.936446 198.33001 A 50 50 0 0 1 91.214587 197.7471 z M 94.752356 198.81681 A 50 50 0 0 0 96.533126 199.27673 A 50 50 0 0 1 94.752356 198.81681 z M 98.323714 199.61572 A 50 50 0 0 0 100.18665 199.95265 A 50 50 0 0 1 98.323714 199.61572 z M 101.9545 200.15212 A 50 50 0 0 0 103.87945 200.35573 A 50 50 0 0 1 101.9545 200.15212 z M 105.58839 200.41981 A 50 50 0 0 0 107.43995 200.48905 A 50 50 0 0 0 107.67973 200.48595 A 50 50 0 0 1 105.58839 200.41981 z " />
    <path
       id="path218"
       style="fill:#ffdd55;stroke-width:0.264583"
       d="m 107.53719,100.48923 a 10,10 0 0 0 -9.999895,9.9999 10,10 0 0 0 9.995245,9.99939 v 0.002 a 30,30 0 0 1 5.2e-4,0 30,30 0 0 1 30.00024,30.00023 30,30 0 0 1 -29.96458,29.99972 10,10 0 0 0 -0.0357,-0.003 10,10 0 0 0 -9.999905,9.99991 10,10 0 0 0 9.999385,9.9999 v 0.003 a 50,50 0 0 0 5.2e-4,0 50,50 0 0 0 50.00005,-50.00004 50,50 0 0 0 -49.96956,-49.99953 10,10 0 0 0 -0.0264,-0.002 z" />
    <circle
       style="fill:#ffffff;stroke-width:0.292228"
       id="path632"
       cx="107.52943"
       cy="150.48836"
       r="25" />
    <circle
       style="fill:#ffffff;stroke-width:0.31961"
       id="path395-8"
       cx="84.189117"
       cy="182.99628"
       r="10" />
  </g>
</svg>
