<?xml version="1.0" encoding="UTF-8" standalone="no"?>
<svg
   fill="#fff"
   version="1.1"
   x="0px"
   y="0px"
   viewBox="0 0 880.20503 980.16998"
   enable-background="new 0 0 1000 1000"
   xml:space="preserve"
   id="svg12"
   sodipodi:docname="mongodb.svg"
   width="40px"
   height="40px"
   inkscape:version="1.2.2 (732a01da63, 2022-12-09)"
   xmlns:inkscape="http://www.inkscape.org/namespaces/inkscape"
   xmlns:sodipodi="http://sodipodi.sourceforge.net/DTD/sodipodi-0.dtd"
   xmlns="http://www.w3.org/2000/svg"
   xmlns:svg="http://www.w3.org/2000/svg">
<metadata
   id="metadata2"> Svg Vector Icons : http://www.onlinewebfonts.com/icon </metadata>
<g
   id="g10"
   transform="translate(-59.894701,-9.8863233)"><path
     d="m 539.7,893.6 c -10.4,8.9 -16.1,22.2 -16.1,35.8 v 27.2 H 492 c 0,0 -0.2,-7 -0.2,-19.5 0,-10.4 2,-20.6 5.7,-30.4 8.8,-22.7 10.4,-47.2 10.4,-51.3 V 742.5 c -2.7,0 -5.4,0 -7.7,0 -7.9,0 -15.9,-0.2 -23.6,-0.4 V 855 c 0,7.7 -5.2,23.6 -9.5,38.3 -0.7,-0.7 -4.6,-1.8 -5.7,-2.5 C 435.3,867.9 393.1,817.5 387.2,736.3 242,719.7 124.7,671.4 59.9,604.7 V 785.3 C 61.9,898.4 258,990 500,990 742,990 938.1,898.4 940.1,785.2 v -180 C 875.2,672 757.9,720.3 612.5,736.8 c -6.6,86.5 -47.8,135.3 -72.8,156.8 z"
     id="path4" /><path
     d="M 59.9,210.5 C 60.9,99.3 254.3,9.5 491.8,10 729.3,10.5 920.9,101 919.9,212.3 918.8,323.5 725.5,413.3 488,412.8 252,412.3 61,322.8 59.9,212.3 Z"
     id="path6" /><path
     d="m 387.3,696.7 c 7.5,-84.1 59.7,-152.5 89.1,-185.1 v 191.7 c 7.7,0.2 15.7,0.4 23.6,0.4 2.7,0 5.4,0 7.7,0 V 493.9 c 15.2,14.3 99.3,83.5 105.5,203 C 800.3,673.7 938.5,594.1 939.9,499.1 V 318.5 C 859.5,401.5 696.7,456 500,456 303.3,456 140.9,401.5 59.9,318.1 v 180.6 c 1.4,95 140,174.8 327.4,198 z"
     id="path8" /></g>
</svg>