<?xml version="1.0" encoding="UTF-8" standalone="no"?>
<svg
   fill="#fff"
   width="50px"
   height="40px"
   viewBox="-18.458 -22.75 134.28328 61.909958"
   version="1.1"
   id="svg12"
   sodipodi:docname="mysql.svg"
   inkscape:version="1.2.2 (732a01da63, 2022-12-09)"
   xmlns:inkscape="http://www.inkscape.org/namespaces/inkscape"
   xmlns:sodipodi="http://sodipodi.sourceforge.net/DTD/sodipodi-0.dtd"
   xmlns="http://www.w3.org/2000/svg"
   xmlns:svg="http://www.w3.org/2000/svg">
   <path
      d="M -18.458,6.58 H 172.693 V 139.07 H -18.458 Z"
      fill="none"
      id="path2" />
   <path
      id="path4"
      d="m 64.003451,-37.347736 c -1.30698,-0.01955 -2.44634,0.472061 -3.03434,1.91431 -1.01,2.430997 1.49392,4.821205 2.35392,6.054204 0.635,0.855999 1.45818,1.829931 1.90218,2.801929 0.263,0.634999 0.33668,1.309112 0.59968,1.980112 0.598,1.643999 1.15724,3.472982 1.94324,5.00698 0.41,0.782 0.8569,1.60392 1.3809,2.31192 0.3,0.413999 0.82215,0.597162 0.93615,1.272162 -0.521,0.743999 -0.56202,1.866997 -0.86102,2.800997 -1.34399,4.2209944 -0.81904,9.4497534 1.08596,12.55175086 0.596,0.93399903 2.01809,2.99024914 3.92009,2.20225014 1.684,-0.67200011 1.31084,-2.801175 1.79484,-4.6681726 0.111,-0.451 0.0378,-0.747025 0.26181,-1.043024 v 0.0728 c 0.521,1.0449996 1.04724,2.0521386 1.53023,3.10013746 1.159,1.82899803 3.17712,3.73484814 4.85811,5.00184714 0.895,0.675999 1.60393,1.832185 2.72493,2.245184 V 6.145649 h -0.0742 c -0.227,-0.335 -0.55882,-0.484818 -0.85682,-0.744817 -0.674,-0.673 -1.42024,-1.494985 -1.94324,-2.240984 -1.566,-2.092998 -2.9519,-4.410357 -4.1819,-6.8013556 -0.602,-1.159998 -1.12083,-2.427949 -1.60583,-3.585948 -0.226,-0.446999 -0.22608,-1.120897 -0.60108,-1.345897 -0.562,0.820999 -1.38111,1.531792 -1.79111,2.537791 -0.711,1.608998 -0.78509,3.5883306 -1.04909,5.64632847 l -0.14701,0.07187 c -1.19,-0.298999 -1.60371,-1.53012587 -2.05571,-2.57512487 -1.119,-2.6539976 -1.30701,-6.9136962 -0.33601,-9.975692 0.26,-0.783 1.38469,-3.249225 0.93569,-3.995224 -0.225,-0.715 -0.97277,-1.122172 -1.38276,-1.685172 -0.482,-0.707999 -1.0099,-1.603855 -1.3459,-2.389854 -0.896,-2.090998 -1.34692,-4.408017 -2.31192,-6.498014 -0.451,-0.973999 -1.23411,-1.981933 -1.86811,-2.878932 -0.712,-1.007999 -1.49505,-1.718001 -2.05805,-2.912999 -0.186,-0.411 -0.44693,-1.082769 -0.14793,-1.529768 0.073,-0.3 0.22468,-0.412212 0.52268,-0.487211 0.48399,-0.409 1.86705,0.111007 2.35205,0.336007 1.385,0.56 2.54335,1.083177 3.69935,1.867176 0.523,0.374999 1.08371,1.084696 1.75471,1.271695 h 0.78588 c 1.193,0.26 2.53809,0.07221 3.66109,0.41021 1.97899,0.635999 3.77232,1.569059 5.38032,2.576058 4.89299,3.102996 8.928,7.512095 11.65199,12.77809 0.447,0.857999 0.6369,1.643725 1.0449,2.538724 0.78699,1.831998 1.76005,3.7002598 2.54105,5.4932574 0.785,1.754998 1.533,3.546648 2.654,5.0046476 0.559,0.783999 2.804819,1.195303 3.811819,1.606303 0.745,0.3349989 1.90499,0.63295686 2.57699,1.04395687 1.271,0.78299902 2.53702,1.68192513 3.73202,2.54292413 0.595,0.448 2.46505,1.381916 2.57605,2.129915 -2.98999,-0.076 -5.30496,0.225224 -7.24796,1.047224 -0.561,0.223999 -1.45317,0.223888 -1.53117,0.932887 0.303,0.3 0.33808,0.783961 0.60108,1.197961 0.448,0.746999 1.22885,1.7519854 1.94185,2.2759854 0.783,0.5999996 1.56912,1.1939066 2.39312,1.7169056 1.453,0.899 3.10003,1.421987 4.51603,2.317986 0.825,0.521 1.64506,1.195107 2.47106,1.756107 0.406,0.299 0.66583,0.784155 1.19283,0.971155 v -0.114336 c -0.264,-0.335999 -0.33882,-0.821627 -0.59782,-1.195627 l -1.12189,-1.082224 c -1.084,-1.455999 -2.43116,-2.726754 -3.88415,-3.770753 -1.196,-0.8239996 -3.81217,-1.944277 -4.29717,-3.322276 l -0.0756,-0.07607 c 0.822,-0.077 1.79693,-0.374881 2.57792,-0.603881 1.271,-0.334999 2.42989,-0.25908 3.73389,-0.59408 0.6,-0.15 1.19517,-0.338145 1.79717,-0.523145 V 4.950488 c -0.676,-0.672999 -1.15804,-1.566717 -1.86904,-2.202716 -1.902,-1.642999 -3.99834,-3.24990613 -6.16434,-4.594905 -1.16,-0.748999 -2.65195,-1.231109 -3.88695,-1.8681096 -0.445,-0.224999 -1.19497,-0.336283 -1.45697,-0.710282 -0.669999,-0.822 -1.047029,-1.9036 -1.533029,-2.876599 -1.08,-2.052998 -2.12894,-4.3312154 -3.06094,-6.5022134 -0.674,-1.455999 -1.08391,-2.910031 -1.90591,-4.25703 -3.85,-6.349994 -8.0312,-10.19592 -14.45719,-13.970917 -1.381,-0.785999 -3.02378,-1.121035 -4.77878,-1.533034 l -2.80287,-0.147937 c -0.598,-0.262 -1.19724,-0.97303 -1.71923,-1.30903 -1.3325,-0.839999 -3.97625,-2.292874 -6.15454,-2.325451 z m 9.21454,9.237409 a 5.82,5.82 0 0 0 -1.52884,0.188071 v 0.07513 h 0.0719 c 0.301,0.596999 0.82403,1.010634 1.19703,1.531634 0.301,0.598999 0.56182,1.193108 0.85682,1.791108 l 0.0723,-0.07374 c 0.527,-0.373001 0.78868,-0.971111 0.78868,-1.86811 -0.227,-0.264 -0.26181,-0.522018 -0.45081,-0.784017 -0.22,-0.373999 -0.70509,-0.560086 -1.00709,-0.860086 z m 0.66222,42.359828 c -3.938,0 -7.01008,1.298358 -9.20708,3.895354 -2.414,2.839997 -3.61908,7.021823 -3.61908,12.550818 0,5.434991 1.06814,9.422141 3.20513,11.951141 1.955,2.29099 4.90208,3.43801 8.84307,3.43801 1.47,0 2.81896,-0.18022 4.04796,-0.54321 l 7.39964,4.30789 2.01838,-3.47394 -5.68413,-2.80473 c 0.504,-0.414 0.9861,-0.86237 1.4201,-1.38137 2.41599,-2.83799 3.62095,-7.03476 3.62095,-12.59375 0,-10.228989 -4.01395,-15.346213 -12.04494,-15.346213 z m -24.59203,0.04807 c -2.779,0 -5.04622,0.770187 -6.803219,2.315186 -1.754998,1.538997 -2.632059,3.561739 -2.632059,6.067736 0,3.027997 1.176282,4.866284 3.525278,6.578283 0,0 4.33381,2.487884 6.50081,3.67788 2.35,1.315 3.63122,2.88485 3.63122,4.72184 0,1.458 -0.62924,2.61135 -1.68424,3.43335 -1.056,0.819 -2.5121,1.23203 -4.3751,1.23203 -1.985,0 -4.19602,-0.60825 -6.638013,-1.83125 l -1.32863,2.65493 c 2.837997,1.922 5.769603,2.88827 8.793593,2.88827 3.233,0 5.81305,-0.84113 7.73704,-2.51913 1.922,-1.685 2.88407,-3.83588 2.88407,-6.45788 0,-3.00399 -1.20308,-4.82495 -3.61208,-6.533945 0,0 -4.44202,-2.531152 -6.63802,-3.723151 -2.414,-1.340999 -3.72175,-2.931177 -3.72175,-4.759175 0,-1.195999 0.52897,-2.171067 1.38697,-2.933066 0.85099,-0.764999 2.07515,-1.145693 3.66014,-1.145693 1.957,0 3.94107,0.42703 5.95107,1.281029 l 1.1919,-2.656326 c -2.35,-1.521998 -4.95898,-2.290918 -7.82898,-2.290918 z m -65.455215,0.412076 c -1.220998,9.619989 -1.985052,19.926239 -2.289051,30.919229 h 4.717173 c 0.152,-9.03999 0.518025,-17.254429 1.099025,-24.642421 h 0.0448 l 7.8322433,24.642421 h 3.939689 l 7.879379,-24.642421 h 0.04573 c 0.823999,7.694992 1.328101,15.907431 1.511101,24.642421 H 13.78804 c -0.244,-9.34399 -1.037922,-19.651242 -2.381921,-30.919229 H 5.2688463 l -7.510704,22.718779 h -0.0462 l -7.464969,-22.718779 z m 106.583015,0 v 30.919229 h 14.699869 v -3.80622 H 95.360891 V 14.709647 Z m -17.03886,3.342808 c 2.475,0 4.28893,0.932132 5.44893,2.79213 1.25,2.016998 1.87884,5.222156 1.87884,9.619151 0,7.84899 -2.36663,11.7738 -7.09863,11.7738 -2.47599,0.001 -4.29025,-0.92786 -5.45125,-2.79586 -1.252,-2.014 -1.87791,-5.24789 -1.87791,-9.70689 0,-7.784992 2.36503,-11.682331 7.10002,-11.682331 z m -42.047145,4.761974 c -0.886999,7.023993 -2.443841,13.515377 -4.672839,19.468377 0.153,-1.191 -0.229227,-3.28228 -1.145226,-6.27728 L 21.435952,22.815827 H 16.35197 l 5.678995,17.635737 c 0.853999,2.65599 1.281963,4.41032 1.281963,5.26832 0,1.25099 -0.548905,2.38161 -1.646904,3.38761 -0.917999,0.826 -2.122017,1.23809 -3.620016,1.23809 -0.823999,0 -1.540849,-0.05014 -2.151848,-0.13814 v 2.75713 c 1.249998,0.512 2.304872,0.77002 3.159871,0.77002 3.206997,0 6.151803,-1.99781 8.839801,-5.9898 3.449996,-5.186 6.230191,-13.49404 8.337189,-24.928033 v -0.0023 z m 76.199994,19.020367 v 0.64308 h 1.11489 l 0.002,3.14587 h 0.81902 v -3.14587 h 1.07196 v -0.64308 z m 3.87109,9.3e-4 v 3.78802 h 0.73081 v -2.8822 h 0.0411 l 1.07802,2.8822 h 0.55722 l 1.07382,-2.8822 v 2.8822 h 0.77422 v -3.78802 h -1.16109 l -0.94689,2.58493 -1.02903,-2.58493 z" />
</svg>