<?xml version="1.0" encoding="UTF-8" standalone="no"?>
<svg
   fill="#fff"
   width="50"
   height="50"
   viewBox="0 0 384.01921 448.06398"
   version="1.1"
   id="svg8"
   sodipodi:docname="logo-nodejs-svgrepo-com.svg"
   inkscape:version="1.2.2 (732a01da63, 2022-12-09)"
   xmlns:inkscape="http://www.inkscape.org/namespaces/inkscape"
   xmlns:sodipodi="http://sodipodi.sourceforge.net/DTD/sodipodi-0.dtd"
   xmlns="http://www.w3.org/2000/svg"
   xmlns:svg="http://www.w3.org/2000/svg"
   xmlns:rdf="http://www.w3.org/1999/02/22-rdf-syntax-ns#"
   xmlns:cc="http://creativecommons.org/ns#"
   xmlns:dc="http://purl.org/dc/elements/1.1/">
   <defs
      id="defs12" />
   <sodipodi:namedview
      id="namedview10"
      pagecolor="#ffffff"
      bordercolor="#000000"
      borderopacity="0.25"
      inkscape:showpageshadow="2"
      inkscape:pageopacity="0.0"
      inkscape:pagecheckerboard="0"
      inkscape:deskcolor="#d1d1d1"
      showgrid="false"
      inkscape:zoom="0.5"
      inkscape:cx="-240"
      inkscape:cy="487"
      inkscape:window-width="1920"
      inkscape:window-height="1000"
      inkscape:window-x="1911"
      inkscape:window-y="-9"
      inkscape:window-maximized="1"
      inkscape:current-layer="svg8" />
   <title
      id="title2">ionicons-v5_logos</title>
   <path
      id="path4"
      d="M 192.01,0.00875011 A 37,37 0 0 0 173.685,4.8650001 L 18.245,98.075 a 38.2,38.2 0 0 0 -18.2399997,32.77 v 186.17 A 38.26,38.26 0 0 0 18.245,349.815 l 40.76,24.34 0.23,0.13 c 20.57998,10.52999 28.46001,10.53 37.59,10.53 32.13997,0 52.11,-20.80003 52.11,-54.29 v -180.51 a 8.51,8.51 0 0 0 -8.42,-8.58 h -22.38 a 8.51,8.51 0 0 0 -8.42,8.58 v 180.51 a 15,15 0 0 1 -6.85,13.07 c -5.89999,3.6 -14.47001,2.84 -24.14,-2.15 l -39.06,-23.51 a 1.1,1.1 0 0 1 -0.48,-0.92 v -183.54 a 1.32,1.32 0 0 1 0.59,-1.06 l 151.84,-93 a 0.82,0.82 0 0 1 0.73,0 l 151.93,93 a 1.34,1.34 0 0 1 0.55,1.1 v 183.5 a 1.28,1.28 0 0 1 -0.45,1 l -152.06,90.65 a 1.22,1.22 0 0 1 -0.8,0 l -38.83,-23.06 a 7.8,7.8 0 0 0 -7.83,-0.41 l -0.34,0.2 c -10.71999,6.34999 -13.60001,8 -23.54,11.62 -1.62,0.59 -5.43,2 -5.76,5.77 -0.33,3.77 3.29,6.45 6.51,8.32 l 51.9,31.87 a 35.67,35.67 0 0 0 18.3,5.07 h 0.58 a 35.87,35.87 0 0 0 17.83,-5.07 l 155.43,-93.13 a 38.37,38.37 0 0 0 18.24,-32.83 v -186.17 a 38.21,38.21 0 0 0 -18.24,-32.76 L 210.335,4.8650001 A 37,37 0 0 0 192.01,0.00875011 Z M 237.695,133.635 c -46.05995,0 -73.55,20.75003 -73.55,55.5 0,38.09996 28.49004,48.87 71.29,53.33 49.99995,5.16999 50,12.71001 50,19.37 0.03,10.37999 -4.28004,24.23 -41.55,24.23 -37.28996,0 -45.24,-10.42002 -47.6,-27.24 a 8.43,8.43 0 0 0 -8.22,-7.32 h -19.8 a 8.44,8.44 0 0 0 -8.26,8.58 c 0,14.57999 5.12008,62.17 83.92,62.17 24.37998,0 44.66001,-5.70001 58.63,-16.49 13.96999,-10.78999 21.45,-26.49002 21.45,-45.2 0,-37.54996 -24.50005,-47.83001 -72.75,-54.55 -49.04995,-6.81999 -49.05,-10.29001 -49.05,-17.89 0,-5.46999 4e-5,-18.28 35.46,-18.28 25.22997,0 38.74,3.19002 43.06,20 a 8.35,8.35 0 0 0 8.06,6.67 h 19.87 a 8.24,8.24 0 0 0 6.16,-2.86 8.91,8.91 0 0 0 2.12,-6.44 c -2.57,-35.54996 -28.56005,-53.58 -79.24,-53.58 z" />
   <metadata
      id="metadata296">
      <rdf:RDF>
         <cc:Work
            rdf:about="">
            <dc:title>ionicons-v5_logos</dc:title>
         </cc:Work>
      </rdf:RDF>
   </metadata>
</svg>