<?xml version="1.0" encoding="UTF-8" standalone="no"?>
<svg
   width="40px"
   height="40px"
   xml:space="preserve"
   y="0"
   x="0"
   id="Calque_1"
   version="1.1"
   viewBox="-44.01 -83.675 148.60224 334.69999"
   sodipodi:docname="sql-developer.svg"
   inkscape:version="1.2.2 (732a01da63, 2022-12-09)"
   xmlns:inkscape="http://www.inkscape.org/namespaces/inkscape"
   xmlns:sodipodi="http://sodipodi.sourceforge.net/DTD/sodipodi-0.dtd"
   xmlns="http://www.w3.org/2000/svg"
   xmlns:svg="http://www.w3.org/2000/svg"><defs
     id="defs25" /><sodipodi:namedview
     id="namedview23"
     pagecolor="#ffffff"
     bordercolor="#000000"
     borderopacity="0.25"
     inkscape:showpageshadow="2"
     inkscape:pageopacity="0.0"
     inkscape:pagecheckerboard="0"
     inkscape:deskcolor="#d1d1d1"
     showgrid="false"
     inkscape:zoom="0.35355339"
     inkscape:cx="494.97474"
     inkscape:cy="527.50166"
     inkscape:window-width="1920"
     inkscape:window-height="1000"
     inkscape:window-x="1911"
     inkscape:window-y="-9"
     inkscape:window-maximized="1"
     inkscape:current-layer="Calque_1" /><style
     id="style357"
     type="text/css">.st0{fill:#b9c8d0}.st2{fill:#abb8c0}.st3{fill:#81989f}.st5{fill:#3c9443}</style><g
     transform="translate(-117.90888,-83.675)"
     id="XMLID_5_"><path
       d="M 30.7,241.4 C 12.5,232.2 1.5,220.2 1.5,207 v 68.8 c 0,20.7 27.3,38.7 67.2,47.4 v -68.8 c -14.6,-3.2 -27.5,-7.6 -38,-13 z"
       class="st0"
       id="XMLID_14_"
       style="fill:#fff" /><path
       d="M 39.1,168.8 C 35.8,167.4 32.6,166 29.7,164.4 12.2,155.2 1.6,143.4 1.6,130.5 v 67.7 c 0,1.5 0.2,2.9 0.4,4.4 2.6,13.6 16.8,25.7 38.4,34.4 8.4,3.4 17.9,6.3 28.3,8.6 v -67.8 c -10.9,-2.3 -20.9,-5.4 -29.6,-9 z"
       class="st0"
       id="XMLID_10_"
       style="fill:#fff" /><path
       d="M 123.3,0 C 56,0 1.5,23.7 1.5,53 c 0,13.1 11,25.1 29.1,34.4 3,1.5 6.2,3 9.6,4.4 8.4,3.4 18,6.3 28.4,8.6 L 92,79.3 102.8,69.5 121,53 174.2,4.8 C 158.7,1.7 141.5,0 123.3,0 Z"
       id="XMLID_3_"
       fill="#8ea5af"
       style="fill:#fff" /><path
       d="M 40.3,91.8 C 36.9,90.4 33.7,89 30.7,87.4 12.5,78.1 1.5,66.1 1.5,53 v 68.7 c 0,1.5 0.2,2.9 0.4,4.4 2.5,13.3 16.2,25.2 37.1,33.9 3.8,1.6 7.7,3 11.9,4.4 5.6,1.8 11.5,3.4 17.7,4.7 V 100.3 C 58.3,98.1 48.7,95.2 40.3,91.8 Z"
       class="st0"
       id="XMLID_4_"
       style="fill:#fff" /><path
       d="m 144.1,275.9 c -1.2,-5.3 -1.9,-10.8 -2,-16.4 -6.1,0.4 -12.4,0.6 -18.9,0.6 -10,0 -19.7,-0.5 -29,-1.5 -9,-1 -17.5,-2.3 -25.6,-4.1 v 68.8 c 1.3,0.3 2.6,0.6 4,0.8 15.4,3.1 32.6,4.8 50.6,4.8 19.7,0 38.3,-2.1 54.8,-5.7 a 76.595,76.595 0 0 1 -33.9,-47.3 z"
       class="st2"
       id="XMLID_9_"
       style="fill:#fff" /><path
       d="M 177.7,5.6 C 176.5,5.3 175.4,5.1 174.2,4.9 L 121,53 102.8,69.5 92,79.3 68.7,100.4 c 16.4,3.6 35,5.6 54.6,5.6 7.4,0 14.6,-0.3 21.6,-0.8 23.5,-1.8 44.7,-6.6 61.5,-13.4 C 209.8,90.4 213,89 216,87.4 234.1,78.1 245,66.1 245,53 245,32.2 217.6,14.3 177.7,5.6 Z"
       class="st3"
       id="XMLID_2_"
       style="fill:#fff" /><path
       d="m 215.9,87.4 c -3,1.5 -6.2,3 -9.6,4.4 -16.8,6.8 -37.9,11.6 -61.5,13.4 -7,0.5 -14.2,0.8 -21.6,0.8 -19.6,0 -38.2,-2 -54.6,-5.6 v 68.8 c 16,3.5 34.1,5.5 53.2,5.6 h 1.4 c 27.1,0 52.1,-3.9 72.3,-10.4 4.2,-1.4 8.2,-2.8 11.9,-4.4 20.8,-8.7 34.6,-20.6 37.1,-33.9 0.3,-1.4 0.4,-2.9 0.4,-4.4 V 53 c 0.1,13.1 -10.8,25.1 -29,34.4 z"
       class="st2"
       id="XMLID_7_"
       style="fill:#fff" /><g
       id="XMLID_1_"><path
         d="m 244.6,126.1 c -2.5,13.3 -16.2,25.2 -37.1,33.9 -3.8,1.6 -7.7,3 -11.9,4.4 -20.2,6.5 -45.2,10.4 -72.3,10.4 h -1.4 C 102.8,174.7 84.7,172.7 68.7,169.2 62.5,167.8 56.6,166.3 51,164.5 46.8,163.1 42.8,161.7 39.1,160.1 18.2,151.3 4.5,139.4 2,126.1 1.7,124.7 1.6,123.2 1.6,121.7 v 8.8 c 0,12.9 10.6,24.7 28.1,33.9 2.9,1.5 6.1,3 9.4,4.4 8.7,3.6 18.7,6.7 29.6,9.1 15.2,3.3 32.3,5.3 50.3,5.6 h 4.3 c 32.7,0 62.3,-5.6 84.2,-14.7 3.3,-1.4 6.5,-2.8 9.4,-4.4 17.5,-9.2 28.1,-21 28.1,-33.9 v -8.8 c 0,1.5 -0.1,3 -0.4,4.4 z"
         class="st3"
         id="XMLID_8_"
         style="fill:none" /><path
         d="m 244.6,202.6 c -2.4,12.7 -15,24.1 -34.3,32.7 -1.3,0.6 -2.7,1.2 -4.1,1.7 -3,1.2 -6,2.3 -9.3,3.4 -12.4,4.1 -26.7,7.2 -42.2,9 -4,0.5 -8.1,0.8 -12.3,1.1 -6.3,0.4 -12.7,0.7 -19.2,0.7 -9,0 -17.8,-0.4 -26.2,-1.2 C 87,249 77.5,247.6 68.6,245.6 58.2,243.3 48.7,240.4 40.3,237 18.8,228.3 4.5,216.2 2,202.6 1.7,201.2 1.6,199.7 1.6,198.2 v 8.8 c 0,13.1 11,25.1 29.2,34.4 10.5,5.3 23.4,9.8 38,13 8.1,1.8 16.6,3.1 25.6,4.1 9.3,1 19,1.5 29,1.5 6.4,0 12.7,-0.2 18.9,-0.6 4.1,-0.3 8.1,-0.6 12,-1.1 15.7,-1.8 30.2,-4.9 42.8,-9.1 6.9,-2.3 13.3,-4.9 18.9,-7.8 0.9,-0.5 1.8,-1 2.7,-1.4 16.5,-9 26.4,-20.5 26.4,-33 v -8.7 c 0,0.5 -0.1,0.9 -0.1,1.4 -0.1,1 -0.2,2 -0.4,2.9 z"
         class="st3"
         id="XMLID_19_"
         style="fill:none" /></g><path
       d="m 216.9,164.4 a 138,138 0 0 1 -9.4,4.4 c -21.9,9.1 -51.5,14.7 -84.2,14.7 H 119 c -18.1,-0.3 -35.1,-2.3 -50.3,-5.6 v 67.8 c 8.9,1.9 18.4,3.4 28.4,4.4 8.4,0.8 17.2,1.2 26.2,1.2 6.5,0 13,-0.2 19.2,-0.7 4.2,-0.3 8.3,-0.7 12.3,-1.1 15.5,-1.8 29.8,-4.9 42.2,-9 3.2,-1.1 6.3,-2.2 9.3,-3.4 1.4,-0.6 2.7,-1.1 4.1,-1.7 19.3,-8.6 31.9,-20 34.3,-32.7 0.2,-1 0.3,-2 0.4,-3 0,-0.5 0.1,-0.9 0.1,-1.4 v -67.8 c -0.2,12.9 -10.7,24.7 -28.3,33.9 z"
       class="st2"
       id="XMLID_16_"
       style="fill:#fff" /><g
       id="XMLID_54_"><circle
         r="76.400002"
         cy="258.29999"
         cx="218.5"
         id="XMLID_85_"
         fill="#e5e9ec"
         style="fill:#ffffff" /><g
         id="XMLID_78_"
         style="fill:#000000"><path
           d="m 218.5,197.7 c 34.9,0 63.3,27.8 64.3,62.5 v -1.9 c 0,-35.6 -28.8,-64.4 -64.4,-64.4 -35.6,0 -64.4,28.8 -64.4,64.4 v 1.9 c 1.2,-34.6 29.6,-62.5 64.5,-62.5 z"
           class="st5"
           id="XMLID_82_"
           style="fill:#000000" /><path
           d="m 218.5,322.7 c 34.9,0 63.3,-27.8 64.3,-62.5 -1,-34.7 -29.4,-62.5 -64.3,-62.5 -34.9,0 -63.3,27.8 -64.3,62.5 1,34.7 29.4,62.5 64.3,62.5 z"
           id="XMLID_79_"
           fill="#45ac4e"
           style="fill:#000000" /></g><path
         class="st5"
         id="XMLID_67_"
         d="m 196.9,256 v 36 L 251.4,261.5 196.9,231 Z"
         style="fill:none" /><path
         id="XMLID_58_"
         fill="#ffffff"
         d="m 196.9,252.8 v 36.1 l 54.5,-30.6 -54.5,-30.5 z" /></g></g></svg>
